<?xml version="1.0" encoding="UTF-8"?>
<svg id="Layer_2" data-name="Layer 2" xmlns="http://www.w3.org/2000/svg" viewBox="0 0 2897.45 2870.75">
  <defs>
    <style>
      .cls-1 {
        fill: #00496e;
      }
    </style>
  </defs>
  <path class="cls-1" d="M2107.67,561.41c21.74,17.18,47.5-2.51,72.29-33.88,24.44-30.93,37.47-60.31,15.74-77.49-21.74-17.18-47.32,2.29-71.76,33.21-24.8,31.37-38.01,60.98-16.27,78.16Z"/>
  <path class="cls-1" d="M1887.04,327.31c8.69-23.89-.65-52.52-20.51-59.74-17.98-6.54-33.8,3.51-40.34,21.49-6.93,19.06-.62,39.29,22.47,47.69,16.64,6.05,34.09,2.37,38.39-9.44Z"/>
  <path class="cls-1" d="M2843.59,1652.38c-2.68-22.94,6.68-28.9,7.57-33.02,10.24-46.68,14.95-126.52,16.66-175.21,14.19-404.4-150.05-803.2-448.48-1073.98C1758.09-229.77,710.58-84.46,261.61,690.04,106.65,957.36,62.57,1243.21,81.2,1550.66c2.4,39.87,24.82,136.82,10.11,169.58-10.11,22.48-41.15,27-28.58,66.07,17.84,55.5,136.39,37.69,180.47,40.76,32.03,2.21,72.85,7.74,87.37,39.97l-.95,13.43c-20.11,37.13-61.17,25.48-94.58,28.54-59.32,5.43-166.58,16.13-214.84,51.46-39.21,28.67-16.59,71.8,27.32,78.65,55.97,8.72,122.43-12.05,182.91-6.72,102.19,9.02,170.33,81.74,281.34,54.98,42.67-10.3,82.34-49.55,128.46-30.45,51.32,56.39-46.71,86.61-90.17,93.3-121.45,18.67-333.55-30.02-434.65,32.49-38.62,23.87-37.66,71.64,2.86,92.94,71.7,37.66,237.56,11.55,321.83,14.19,22.84-.89,71.68,11.52,79.41,11.72,29.53.79,108.29-17.3,88.28,45.76-7.37,23.23-85.1,26.24-109.86,41.71-21.37,13.33-16.36,25.15-26.47,43.16-19.79,35.23-72.33,17.25-102.19,39.21-26.44,38.06,19.09,59.52,51.19,67.46,114.2,28.31,279.17,5.83,396.37-7.14,84.08-9.28,285.16-50.43,350.51,10.11,28.54,26.47,35.19,74.99-3.16,95.5-54.85,29.33-183.24-20.34-249.18-15.6-34.76,2.53-54.29,29.4-26.67,55.67,47.7,45.3,192.39,47.67,256.49,50.83,137.51,6.81,276.34,4.11,413.65,12.51,142.84,8.69,331.22,43.59,469.32-1.91,7.97-2.63,17.12-11.79,24.69-16.26,11.59-20.35-1.51-40.43-21.17-49.05-51.06-22.42-150.32-4.35-185.61-43.85-37.43-41.91,30.25-73.28,62.42-84.24,279.52-95.27,470.47-17.44,470.47-17.44,38.49,16.8,77.81,19.56,96.82,2.02,19.59-18.07,16.98-38.7-17.1-61.62-21.13-14.21-48.19-10.92-56.53-9.99-122.2,13.52-276.06-36.12-287.58-107.61-11.42-70.88,84.29-39.76,133.93-7.7,48.72,35.03,374.43,66.61,340.94-23.2-13.87-37.22-51.58-2.54-112.45-15.86-58.91-12.89,13.92-58.9-86.5-57.66-51.43.64-23.5-61.06,4.43-91.31,38.81-42.02,146.25-54.71,234.32-31.03,49.48,13.3,169.79,11.71,201.03-48.34,23.31-44.8,3.55-108.37-30.72-142.24-48.36-47.8-220.26-36.46-135.03-121.33,56.43-56.2,176.85-34.34,231.3-94.42,13.66-46.19-48.09-32.88-51.88-65.28ZM2216.77,423.36c43.47,34.36,28.9,81.82-7.23,127.54-36.13,45.71-79.3,71.31-122.77,36.95-43.47-34.36-28.54-82.27,7.59-127.99,36.13-45.71,78.94-70.86,122.42-36.5ZM1979.86,318.78c13.01-23.49,49.95-17.07,72.93-4.33,30.98,17.16,46.67,51.32,28.4,84.31-33.22,59.97-120.86,15.99-138.71,48.22-1.8,3.25-.49,5.61,4.26,8.24l51.97,28.79c3.5,1.94,6.6,1.04,8.54-2.45l5.95-10.74,29.48,16.33-14.95,26.98c-6.64,11.99-14.41,14.22-26.4,7.58l-92.45-51.21c-15.49-8.58-14.5-16.85-5.23-33.59,35.57-64.21,120.34-12.69,144.28-55.91,7.75-13.99,2.24-28.8-13-37.24-13.99-7.75-27.25-5.63-30.99,1.12l-4.29,7.75-29.48-16.33,9.69-17.49ZM1777.02,379.07s10.1,10.67,24.6,15.94c29.79,10.84,55.08-8.53,69.41-33.72l-.54-.19c-9.2,6.07-26.82,6.05-40.51,1.07-37.58-13.67-50.29-51.43-37.88-85.52,12.79-35.16,48.21-54.8,86.05-41.03,39.46,14.36,61.83,58.97,41.32,115.34-18.46,50.73-68.17,97.99-127.23,76.51-24.16-8.79-36.26-22.31-36.26-22.31l21.04-26.08ZM1621.1,348.87l42.83,8.71,22.44-110.28c1.37-6.72,3.01-13.38,3.01-13.38l-.56-.11s-3.21,4.3-10.96,9.43l-19.03,11.87-16.72-26.72,59.56-37.73,33.03,6.72-34.11,167.66,42.83,8.71-6.32,31.07-122.32-24.89,6.32-31.07ZM1493.98,167.91c13.42-.34,19.57,5.5,19.91,18.93l.78,30.84-33.98.86-.31-12.28c-.1-4-2.44-6.22-6.44-6.12l-45.69,1.16,1.34,53.11,65.67-1.66.8,31.69-65.67,1.66,1.22,48.26c.1,4,2.44,6.22,6.44,6.12l46.83-1.19c4-.1,6.22-2.44,6.12-6.44l-.31-12.28,33.98-.86.78,30.84c.35,13.71-5.5,19.57-18.92,19.91l-91.94,2.33c-13.71.35-19.56-5.22-19.91-18.92l-3.84-151.62-18.56.47-.8-31.7,122.5-3.1ZM1243.88,187.88c25.46-5.26,77.44-4.91,84.43,28.93l4.57,22.1-33.29,6.88-2.31-11.19c-3-14.54-28.17-16.35-45.51-12.76-35.52,7.34-58.24,38.57-49.69,79.97,8.03,38.88,43.04,64.32,79.12,56.86,37.48-7.74,54.71-38.72,54.71-38.72l24.73,22.31s-21.76,40.08-72.95,50.65c-60.7,12.54-111.52-24.5-123.65-83.25-11.85-57.34,22.22-109.88,79.84-121.78ZM959.63,285.19l115.01,72.64c11.98,7.59,26.79,19.55,26.79,19.55l.52-.23s-8.51-14.68-13.15-25.44l-36.76-85.24c-5.32-12.33-2.45-20.1,10.14-25.53l33.57-14.48,12.56,29.11-11.28,4.86c-3.67,1.58-4.87,4.59-3.28,8.26l65.27,151.33-30.69,13.23-115.16-72.27c-11.87-7.32-26.79-19.55-26.79-19.55l-.52.23s8.51,14.68,13.15,25.43l36.65,84.98c5.43,12.59,2.45,20.1-10.14,25.53l-33.57,14.48-12.56-29.11,11.28-4.86c3.67-1.58,4.87-4.59,3.28-8.26l-65.27-151.33,30.95-13.35ZM874.73,330.51l16.8,26.89-17.2,10.74,73.86,118.21,17.2-10.75,16.8,26.89-64.43,40.26-16.8-26.89,17.2-10.75-73.86-118.21-17.2,10.75-16.8-26.89,64.43-40.26ZM723.31,431.33c18.41-14.93,53.83-29.31,72-6.91l11.88,14.64-26.18,21.23-5.76-7.1c-5.94-7.32-20.32-3.74-30.75,4.71-13.31,10.79-17.49,25.59-9.4,35.57,21.77,26.84,91.55-38.58,133.47,13.11,20.33,25.07,18.31,62.02-14.75,88.83-34.83,28.25-73.92,19.5-73.92,19.5l-.14-33.72s31.31,5.5,53.27-12.31c11.98-9.72,17.41-24.79,7.51-36.99-21.77-26.84-94.07,35.47-133.83-13.56-20.69-25.51-13.8-62.36,16.59-87.01ZM1628.4,2572.4c-22.02,26.44-67.18,8.79-94.96,16.87-9.51,2.77-12.56,3.85-32.2,6.12-15.16,1.75-39.41-.93-48.07-2.78-27.21-6.46-44.06-16.91-43.28-30.03.45-7.54,3.53-15.29,9.92-22.25,3.03-3.29,9.35-11.46,27.75-17.35,20.71-6.65,32.99-6.32,77-1.12,25.12,3.72,113.54,16.85,103.83,50.53ZM2298.29,1849.78c-81.64,23.8-180.44,25.35-263.4,43.92-27.16,6.06-83.09,15.54-72.03,53.33,3.98,13.6,37.66,24.59,50.73,27.23,34.8,7.05,147.09-4.67,137.05,55.41-5.99,16.3-25.74,29.07-42.99,31.01-90.57,10.21-201.08-20.58-291.42-32.46-62.85-8.26-191.63-24.07-247.1,2.01-55.77,26.24-45.76,87.6,5.6,112.46,38.85,18.77,96.69,18.5,139.45,16.2,48.06-2.6,152.59-36.15,161.25,33.88-5.33,16-19.72,25.78-35.36,30.55-57.38,17.51-127.9,5.27-187.32,9.38-16.49,1.12-78.98,9.55-83.59,27.32-.38.95-.93,2.72-.67,4.92.49,4.07,3.47,6.36,4.06,6.93,3.95,3.82,66.54,22.07,70.6,40.88,1,4.62-.21,10.04-4.49,16.5-9.98,11.43-18.24,16.76-30.81,18.3-72.33,9.05-156.47-3.42-229.66-8.36-38.32-2.57-110.09,4.58-141.26-18.53-22.39-16.59-13.43-45.04,11.39-53.99,15.14-5.47,54.81-8.39,72.56-9.42,39.21-2.24,81.94,4.81,120.1-6.91,47.5-14.62,23.18-44.94-12.28-55.83-70.88-21.79-177.71-12.67-250.17,2.37-75.45,15.7-178.79,59.39-254.64,51.69-75.36-7.7-99.78-67.69-15.7-92.57,26.73-7.93,130.6-7.87,130.6-40.1-26.17-52.05-118.52,7.6-146.27-49.18,10.53-27.82,46.15-28.67,71.93-29.79,46.68-2.01,116.84,14.25,158.68,2.14,33.78-9.81,38.42-37.86,8.23-55.27-22.09-12.71-86.38-20.11-113.54-21.69-53.6-3.13-179.95,11.06-220.9-20.84-25.28-19.72-10.63-43.98,14.62-53.99,24.66-9.74,53.86-5.79,78.68-15.54,13.7-9.65,11.03-22.39-.66-32.26-54.48-15.9-108.74,1.09-163.29,7.6-43.36,5.2-106.1,17.61-147.16,12.87-17.91-2.04-47.41-13.4-47.41-34.93-.03-49.81,121.54-15.77,145.61-35.09,41.35-33.22-22.16-57.68-32.33-73.64-31.67-49.78,46.62-30.85,57.18-53.07,10.07-21.27-19.98-101.86-25.55-130.17-61.23-311.79,63.57-635.67,321.31-819.63,578.75-413.06,1323.09,53.99,1275.55,742.86-3.03,44.18-18.5,128.75-36.05,168.79-22.72,51.85-47.74,35.06-73.15,60.01-30.35,29.83,8.66,49.22,37.56,51.82,45.17,4.05,141.89-7.51,156.67,52.38,8.62,34.9-33.02,52.61-60.21,60.54Z"/>
  <path class="cls-1" d="M1407.1,2807.11c-50.92-15.32-184.22-13.23-240.9-9.41-19.34,1.3-77.97,7.99-85.27,25.9l2.66,18.18c6.4,3.65,12.43,8.56,19.31,11.4,48.3,20,247.08,19.83,305.43,14.55,18.72-1.69,30.69-8.41,37.28-26.8-4.1-18.88-21.06-28.57-38.51-33.82Z"/>
  <path class="cls-1" d="M2374.5,2601.85c-26.09-15.85-122-19.49-153.95-15.89-18.69,2.11-65.15,9.71-64.57,33.8.26,10.74,21.77,23.02,31.63,25.56,45.95,11.84,144.29,15.3,187.8-2.85,14.85-6.19,18.91-16.96,10.2-31.29-3.33-3.54-6.94-6.8-11.11-9.34Z"/>
  <path class="cls-1" d="M430.35,2375.38c9.52-31.98-40.11-33.78-62.5-31.77-14.11,1.27-87.08,13.66-55.5,34.06,29.32,18.94,87.19,11.71,118-2.29Z"/>
  <path class="cls-1" d="M1699.1,1609.78c-13.83,33.02-4.54,80.69-43.26,96.16-3.56,1.42-6.81,1.81-9.88,1.38-23.64-3.39-32.36-49.32-43.82-78.52-7.05-17.97-14.16-26.76-142.88-134.65-82.63-69.23-92.05-75.98-112.03-79.54-53.23-9.55-102.75,14.72-139.12,40.16-39.11,27.32-89.58,75.55-128.49,96.89-29.86,16.33-67.75,16.99-96.62,37.5-7.87,11.49-57.74,55.44-47.9,69.5,11.23,4.35,25.94,2.04,37.63-.86,17.65-4.38,84.54-41.68,92.71-12.38l-7.67,35.98c14.85,8,28.84-19.39,34.4-31.14,6.58-13.86,9.58-35.46,17.15-48.43,21.23-36.51,147.52-66.93,186-92.64,4.74-.69,9.51-1.35,14.25-2.04,9.38,18.7,24.03,43.09,46.58,67.85,25.35,27.88,51.39,45.99,70.65,57.28-23.77,11.88-51.06,27.72-79.57,48.82-23.74,17.55-43.62,35.29-59.95,51.59-1.42,6.81,1.74,8.4,6.65,11.69,22.55,15.08,107.65,42.4,135.11,45.2,122.14,12.38,204.95-50.56,334.46-28.99,22.39,3.72,89.03,6.28,105.49-1.33,9.92-4.56,20.8-24.23,28.83-44.92,7.38-19.01,12.35-38.89,11.96-48.71-4.87-119.7-167.27-159.6-210.69-55.87Z"/>
  <path class="cls-1" d="M2704.15,2208c-20.04-13.13-69.84-20.98-110.45-21.56l-1.99-.03c-56.67-1.67-110.15,15.05-64,35.06,38.82,15.67,111.87,21.71,160.08,11.01,23.2-5.57,30.54-15.24,16.36-24.48Z"/>
</svg>