<?xml version="1.0" encoding="UTF-8"?>
<svg xmlns="http://www.w3.org/2000/svg" viewBox="0 0 1805.21 2530.26">
  <defs>
    <style>
      .cls-1 {
        fill: #00496e;
      }
    </style>
  </defs>
  <g id="Layer_1" data-name="Layer 1">
    <g>
      <path class="cls-1" d="M217.61,2085.2v88.91H47.17v-284.04h68.17v271.78c33.23-6.24,91.86-45.17,102.25-76.64h.02Z"/>
      <path class="cls-1" d="M432.38,2174.1h-170.44v-284.04h164.76v61.53c-8.06-30.79-38.29-50.16-82.37-50.16h-14.2v107.95h26.02l-.29-.05c21.01,0,51.97-16.02,59.49-36.19v83.85c-7.5-16.98-39.49-36.19-59.49-36.19l.34-.05h-26.07v142.03c44.08,0,90.28-36.19,102.25-77.55v88.89Z"/>
      <path class="cls-1" d="M476.31,2174.12v-284.06h68.17v284.06h-68.17Z"/>
      <path class="cls-1" d="M792.87,1890.06v284.06h-68.68l-124.46-246.27v135.62c0,30.52,43.23,99.3,77.55,110.67h-88.91v-284.08h68.68l124.46,246.39v-135.72c0-30.57-43.18-99.3-77.48-110.67h88.84Z"/>
      <path class="cls-1" d="M944.61,2180.24c-69.2,0-105.05-36.64-107.77-85.66l66.76-22.73c-.34,11.36.62,27.5,1.87,36.12,7.5,52.09,25.06,64.03,55.34,59.15,20.28-3.29,43.35-32.56,23-73.74-25.97-52.56-142.82-36.3-135.79-130.61,4.84-64.65,55.05-78.85,96.57-78.85s92.71,24.65,96.4,68.91l-68.17,22.73c.51-8.92.62-19.54-.39-25.39-8.87-49.76-29.49-55.44-43.96-53.12-22.39,3.64-26.25,39.09-11.65,67.67,22.26,43.69,124.71,21.48,135.72,118.68,7.1,62.83-36.37,96.87-107.95,96.87l.02-.02Z"/>
      <path class="cls-1" d="M1299.17,1890.06v88.91c-13.93-33.21-38.36-59.93-73.86-71.41v266.56h-68.17v-266.74c-32.78,10.74-58.1,35.41-73.86,71.58v-88.91h215.89Z"/>
      <path class="cls-1" d="M1513.55,2174.1h-170.44v-284.04h164.76v61.53c-8.06-30.79-38.29-50.16-82.37-50.16h-14.2v107.95h26.02l-.29-.05c21.01,0,51.97-16.02,59.49-36.19v83.85c-7.5-16.98-39.49-36.19-59.49-36.19l.34-.05h-26.07v142.03c44.08,0,90.28-36.19,102.25-77.55v88.89Z"/>
      <path class="cls-1" d="M1736.09,2097.12l38.92,77.55h-26.37c-30.62,0-58.58-17.27-72.32-44.6l-37.55-74.82h-13.12v118.86h-68.17v-284.06h68.17c60.21,0,130.66,19.38,130.66,87.16,0,29.09-11.25,48.58-31.13,60.84-11.7,7.22-26.42,11.82-43.57,14.5,23.23,6.09,43.35,22.33,54.48,44.6v-.02ZM1642.67,2043.91c15.73,0,53.28-11.37,44.82-69.32-6.86-47.03-35.73-73.18-53.06-73.18h-8.8v142.48h17.05l-.02.02Z"/>
      <path class="cls-1" d="M274.42,2382.07c0,78.42-41.99,147.71-113.62,147.71s-113.62-69.28-113.62-147.71,41.99-147.71,113.62-147.71,113.62,69.28,113.62,147.71ZM205.67,2374.8c-10.84-66.74-34.08-132.6-66.71-127.29-32.68,5.3-33.86,75.11-23.02,141.86s34.03,132.6,66.71,127.29c32.63-5.28,33.86-75.11,23.02-141.86Z"/>
      <path class="cls-1" d="M372.35,2240.04c60.21,0,130.66,19.38,130.66,87.16,0,29.09-11.25,48.58-31.13,60.84-19.83,12.23-48.24,17.22-82.49,17.22h-17.05v118.86h-68.17v-284.06h68.17l.02-.02ZM389.35,2393.91c15.73,0,53.28-11.37,44.82-69.32-6.86-47.03-35.73-73.18-53.06-73.18h-8.8v142.48h17.05l-.02.02Z"/>
      <path class="cls-1" d="M703.18,2524.1h-170.44v-284.04h164.76v61.53c-8.06-30.79-38.29-50.16-82.37-50.16h-14.2v107.95h26.02l-.29-.05c21.01,0,51.97-16.02,59.49-36.19v83.85c-7.5-16.98-39.49-36.19-59.49-36.19l.34-.05h-26.07v142.03c44.08,0,90.28-36.19,102.25-77.55v88.89Z"/>
      <path class="cls-1" d="M937.4,2240.06v284.06h-68.68l-124.46-246.27v135.62c0,30.52,43.23,99.3,77.55,110.67h-88.91v-284.08h68.68l124.46,246.39v-135.72c0-30.57-43.18-99.3-77.48-110.67h88.84Z"/>
      <path class="cls-1" d="M1190.99,2530.24c-69.2,0-105.05-36.64-107.77-85.66l66.76-22.73c-.34,11.36.62,27.5,1.87,36.12,7.5,52.09,25.06,64.03,55.34,59.15,20.28-3.29,43.35-32.56,23-73.74-25.97-52.56-142.82-36.3-135.79-130.61,4.84-64.65,55.05-78.85,96.57-78.85s92.71,24.65,96.4,68.91l-68.17,22.73c.51-8.92.62-19.54-.39-25.39-8.87-49.76-29.49-55.44-43.96-53.12-22.39,3.64-26.25,39.09-11.65,67.67,22.26,43.69,124.71,21.48,135.72,118.68,7.1,62.83-36.37,96.87-107.95,96.87l.02-.02Z"/>
      <path class="cls-1" d="M1500.09,2524.1h-170.44v-284.04h164.76v61.53c-8.06-30.79-38.29-50.16-82.37-50.16h-14.2v107.95h26.02l-.29-.05c21.01,0,51.97-16.02,59.49-36.19v83.85c-7.5-16.98-39.49-36.19-59.49-36.19l.34-.05h-26.07v142.03c44.08,0,90.28-36.19,102.25-77.55v88.89Z"/>
      <path class="cls-1" d="M1774.07,2524.1h-71.63l-36.69-113.62h-90.16c-10.79,43.81,7.67,88.41,37.1,113.62h-82.88l84.88-284.04h67.67l91.72,284.04ZM1662.11,2399.12l-43.17-133.56-39.93,133.56h83.11Z"/>
    </g>
  </g>
  <g id="Layer_2" data-name="Layer 2">
    <g>
      <path class="cls-1" d="M1771.66,1029.49c-1.67-14.29,4.16-18.01,4.72-20.57,6.38-29.08,9.31-78.82,10.38-109.16,8.84-251.96-93.49-500.42-279.42-669.13C1095.35-143.16,442.72-52.62,162.99,429.92c-96.54,166.55-124.01,344.64-112.4,536.19,1.5,24.84,15.47,85.24,6.3,105.65-6.3,14.01-25.64,16.82-17.8,41.17,11.12,34.58,84.98,23.48,112.44,25.39,19.96,1.37,45.39,4.82,54.44,24.9l-.59,8.37c-12.53,23.14-38.11,15.88-58.93,17.78-36.96,3.38-103.78,10.05-133.85,32.06-24.43,17.86-10.34,44.73,17.02,49,34.87,5.44,76.28-7.51,113.96-4.18,63.67,5.62,106.12,50.93,175.29,34.25,26.58-6.42,51.3-30.87,80.03-18.97,31.98,35.14-29.1,53.96-56.18,58.13-75.66,11.63-207.82-18.71-270.8,20.24-24.06,14.87-23.46,44.63,1.78,57.9,44.67,23.46,148.01,7.2,200.51,8.84,14.23-.56,44.66,7.18,49.48,7.3,18.4.49,67.47-10.78,55,28.51-4.59,14.47-53.02,16.35-68.44,25.99-13.31,8.31-10.19,15.67-16.49,26.89-12.33,21.95-45.06,10.75-63.67,24.43-16.47,23.71,11.9,37.08,31.89,42.03,71.15,17.64,173.93,3.63,246.95-4.45,52.38-5.78,177.66-31.42,218.38,6.3,17.78,16.49,21.93,46.72-1.97,59.5-34.17,18.28-114.16-12.68-155.25-9.72-21.66,1.58-33.82,18.32-16.61,34.68,29.72,28.22,119.87,29.7,159.8,31.67,85.67,4.25,172.17,2.56,257.72,7.79,89,5.41,206.36,27.16,292.4-1.19,4.96-1.64,10.67-7.34,15.38-10.13,7.22-12.68-.94-25.19-13.19-30.56-31.81-13.97-93.65-2.71-115.64-27.32-23.32-26.11,18.85-45.66,38.89-52.49,174.15-59.36,293.12-10.87,293.12-10.87,23.98,10.46,48.48,12.19,60.32,1.26,12.2-11.26,10.58-24.11-10.65-38.39-13.17-8.86-30.02-6.8-35.22-6.23-76.13,8.42-172-22.5-179.18-67.05-7.12-44.16,52.51-24.77,83.44-4.8,30.36,21.82,233.28,41.5,212.42-14.46-8.64-23.19-32.14-1.58-70.06-9.88-36.7-8.03,8.67-36.7-53.89-35.92-32.05.4-14.64-38.04,2.76-56.89,24.18-26.18,91.12-34.09,145.99-19.33,30.83,8.29,105.78,7.3,125.25-30.12,14.52-27.92,2.21-67.52-19.14-88.62-30.13-29.78-137.23-22.71-84.13-75.59,35.16-35.01,110.18-21.39,144.11-58.83,8.51-28.78-29.96-20.49-32.33-40.67ZM1381.26,263.88c27.08,21.41,17.99,50.98-4.52,79.46s-49.41,44.42-76.49,23c-27.08-21.41-17.77-51.26,4.74-79.73,22.52-28.48,49.19-44.14,76.27-22.72ZM1233.67,198.69c8.11-14.63,31.12-10.63,45.44-2.69,19.3,10.7,29.07,31.98,17.68,52.53-20.7,37.36-75.3,9.95-86.43,30.03-1.12,2.02-.31,3.49,2.65,5.13l32.38,17.94c2.18,1.21,4.12.65,5.32-1.53l3.71-6.69,18.37,10.18-9.32,16.81c-4.14,7.47-8.98,8.86-16.45,4.72l-57.59-31.92c-9.65-5.35-9.03-10.5-3.25-20.93,22.17-40,74.97-7.89,89.9-34.82,4.83-8.72,1.4-17.94-8.1-23.21-8.72-4.83-16.98-3.51-19.31.69l-2.67,4.83-18.37-10.18,6.04-10.9ZM1107.25,236.22s6.29,6.65,15.32,9.93c18.56,6.76,34.32-5.31,43.25-21l-.33-.12c-5.73,3.78-16.71,3.77-25.24.66-23.41-8.52-31.33-32.04-23.6-53.28,7.97-21.91,30.04-34.14,53.62-25.56,24.58,8.95,38.52,36.74,25.74,71.86-11.5,31.61-42.48,61.05-79.28,47.66-15.05-5.48-22.59-13.9-22.59-13.9l13.11-16.25ZM1010.11,217.39l26.68,5.43,13.99-68.7c.85-4.19,1.88-8.33,1.88-8.33l-.35-.07s-2,2.68-6.83,5.88l-11.86,7.39-10.41-16.65,37.11-23.5,20.58,4.19-21.27,104.45,26.68,5.43-3.94,19.36-76.2-15.52,3.94-19.35ZM930.91,104.64c8.36-.21,12.19,3.43,12.4,11.79l.48,19.21-21.17.53-.19-7.65c-.06-2.49-1.52-3.88-4.01-3.81l-28.46.72.83,33.09,40.92-1.03.5,19.75-40.92,1.03.76,30.06c.06,2.49,1.52,3.88,4.01,3.82l29.18-.74c2.49-.06,3.88-1.52,3.81-4.01l-.19-7.65,21.17-.53.48,19.21c.22,8.54-3.43,12.19-11.79,12.4l-57.28,1.44c-8.54.22-12.19-3.25-12.4-11.79l-2.38-94.47-11.56.29-.5-19.75,76.32-1.92ZM775.07,117.06c15.86-3.27,48.25-3.06,52.61,18.03l2.84,13.77-20.74,4.28-1.44-6.97c-1.87-9.06-17.55-10.19-28.35-7.96-22.13,4.57-36.29,24.03-30.96,49.82,5,24.23,26.81,40.08,49.29,35.43,23.36-4.82,34.09-24.12,34.09-24.12l15.41,13.9s-13.56,24.97-45.46,31.55c-37.82,7.81-69.48-15.27-77.04-51.87-7.38-35.73,13.85-68.46,49.75-75.87ZM597.92,177.69l71.65,45.26c7.46,4.73,16.69,12.18,16.69,12.18l.33-.14s-5.3-9.15-8.19-15.85l-22.9-53.11c-3.31-7.68-1.53-12.52,6.32-15.9l20.92-9.02,7.82,18.14-7.03,3.03c-2.29.99-3.03,2.86-2.04,5.15l40.67,94.29-19.12,8.25-71.75-45.03c-7.39-4.56-16.69-12.18-16.69-12.18l-.33.14s5.3,9.15,8.19,15.85l22.84,52.94c3.38,7.84,1.52,12.52-6.32,15.9l-20.92,9.02-7.82-18.14,7.03-3.03c2.29-.99,3.03-2.86,2.04-5.15l-40.66-94.29,19.28-8.32ZM545.04,205.91l10.47,16.75-10.72,6.69,46.02,73.65,10.71-6.69,10.47,16.75-40.15,25.08-10.46-16.75,10.71-6.7-46.02-73.65-10.72,6.7-10.47-16.75,40.15-25.08ZM450.68,268.74c11.47-9.3,33.54-18.26,44.86-4.3l7.4,9.12-16.31,13.23-3.59-4.42c-3.7-4.56-12.66-2.33-19.16,2.94-8.29,6.73-10.9,15.94-5.86,22.16,13.56,16.73,57.04-24.03,83.16,8.17,12.67,15.62,11.4,38.64-9.19,55.34-21.7,17.6-46.06,12.15-46.06,12.15l-.09-21.01s19.51,3.43,33.19-7.67c7.46-6.05,10.85-15.44,4.68-23.04-13.56-16.72-58.61,22.1-83.38-8.45-12.89-15.9-8.6-38.85,10.34-54.21ZM1014.55,1602.69c-13.72,16.47-41.86,5.47-59.16,10.51-5.93,1.72-7.82,2.4-20.06,3.81-9.45,1.09-24.56-.58-29.95-1.73-16.96-4.02-27.45-10.54-26.96-18.71.28-4.7,2.2-9.52,6.18-13.86,1.89-2.05,5.83-7.14,17.29-10.81,12.9-4.14,20.55-3.94,47.97-.7,15.65,2.32,70.74,10.5,64.69,31.48ZM1431.91,1152.47c-50.87,14.83-112.42,15.79-164.11,27.36-16.92,3.77-51.77,9.68-44.88,33.23,2.48,8.47,23.46,15.32,31.61,16.96,21.68,4.39,91.64-2.91,85.39,34.52-3.73,10.15-16.04,18.11-26.79,19.32-56.43,6.36-125.28-12.82-181.56-20.22-39.16-5.15-119.39-14.99-153.95,1.25-34.75,16.35-28.51,54.58,3.49,70.06,24.2,11.69,60.24,11.53,86.88,10.09,29.95-1.62,95.07-22.52,100.46,21.11-3.32,9.97-12.29,16.06-22.03,19.03-35.75,10.91-79.68,3.28-116.71,5.85-10.28.7-49.21,5.95-52.08,17.02-.24.59-.58,1.7-.42,3.06.3,2.54,2.16,3.96,2.53,4.32,2.46,2.38,41.46,13.75,43.98,25.47.62,2.88-.13,6.25-2.8,10.28-6.22,7.12-11.36,10.44-19.2,11.4-45.06,5.64-97.49-2.13-143.08-5.21-23.87-1.6-68.59,2.85-88.01-11.55-13.95-10.34-8.37-28.06,7.1-33.64,9.44-3.4,34.15-5.23,45.21-5.87,24.43-1.39,51.05,2.99,74.82-4.31,29.6-9.11,14.44-28-7.65-34.79-44.16-13.58-110.72-7.9-155.86,1.48-47.01,9.78-111.39,37-158.65,32.2-46.95-4.8-62.17-42.17-9.78-57.68,16.65-4.94,81.37-4.9,81.37-24.98-16.31-32.43-73.84,4.74-91.13-30.64,6.56-17.33,28.76-17.86,44.82-18.56,29.08-1.25,72.79,8.88,98.86,1.33,21.04-6.11,23.94-23.59,5.13-34.44-13.76-7.92-53.82-12.53-70.74-13.52-33.39-1.95-112.11,6.89-137.63-12.98-15.75-12.29-6.62-27.4,9.11-33.64,15.36-6.07,33.56-3.61,49.02-9.68,8.53-6.01,6.87-13.95-.41-20.1-33.95-9.91-67.75.68-101.73,4.74-27.01,3.24-66.11,10.97-91.68,8.02-11.16-1.27-29.54-8.35-29.54-21.76-.02-31.03,75.73-9.82,90.72-21.86,25.76-20.7-13.8-35.93-20.14-45.88-19.73-31.01,29.04-19.22,35.63-33.06,6.28-13.25-12.45-63.46-15.92-81.1-38.15-194.26,39.61-396.04,200.19-510.66,360.58-257.35,824.33,33.64,794.71,462.83-1.89,27.53-11.53,80.22-22.46,105.16-14.15,32.3-29.74,21.84-45.57,37.39-18.91,18.58,5.39,30.66,23.4,32.28,28.14,2.52,88.4-4.68,97.61,32.63,5.37,21.74-20.57,32.78-37.51,37.72Z"/>
      <path class="cls-1" d="M1175.8,203.98c5.42-14.88-.4-32.72-12.78-37.22-11.21-4.08-21.06,2.18-25.14,13.39-4.32,11.87-.39,24.48,13.99,29.71,10.37,3.77,21.24,1.48,23.92-5.88Z"/>
      <path class="cls-1" d="M1313.26,349.87c13.54,10.71,29.59-1.56,45.04-21.1,15.23-19.26,23.35-37.57,9.81-48.28-13.54-10.71-29.48,1.42-44.71,20.68-15.45,19.54-23.69,37.99-10.15,48.69Z"/>
      <path class="cls-1" d="M876.67,1748.92c-31.73-9.54-114.77-8.24-150.09-5.86-12.05.81-48.58,4.98-53.12,16.13l1.66,11.33c3.99,2.27,7.74,5.33,12.03,7.1,30.09,12.46,153.94,12.36,190.29,9.06,11.66-1.06,19.12-5.24,23.23-16.7-2.55-11.76-13.12-17.8-23.99-21.07Z"/>
      <path class="cls-1" d="M1479.4,1621.04c-16.26-9.87-76.01-12.14-95.92-9.9-11.64,1.31-40.59,6.05-40.23,21.06.16,6.69,13.56,14.34,19.71,15.93,28.63,7.37,89.9,9.53,117.01-1.77,9.25-3.86,11.78-10.57,6.35-19.49-2.07-2.21-4.32-4.24-6.92-5.82Z"/>
      <path class="cls-1" d="M268.12,1479.94c5.93-19.92-24.99-21.05-38.94-19.79-8.79.79-54.25,8.51-34.58,21.22,18.27,11.8,54.32,7.29,73.52-1.43Z"/>
      <path class="cls-1" d="M1058.6,1002.95c-8.61,20.57-2.83,50.27-26.95,59.91-2.22.88-4.25,1.13-6.15.86-14.73-2.11-20.16-30.73-27.3-48.92-4.39-11.2-8.82-16.68-89.02-83.89-51.48-43.13-57.35-47.34-69.8-49.55-33.17-5.95-64.01,9.17-86.68,25.02-24.37,17.02-55.81,47.07-80.05,60.36-18.6,10.17-42.21,10.58-60.2,23.36-4.9,7.16-35.98,34.54-29.84,43.3,6.99,2.71,16.16,1.27,23.44-.53,10.99-2.73,52.67-25.97,57.76-7.71l-4.78,22.42c9.25,4.98,17.97-12.08,21.43-19.4,4.1-8.64,5.97-22.09,10.69-30.17,13.23-22.75,91.91-41.7,115.89-57.72,2.95-.43,5.93-.84,8.88-1.27,5.85,11.65,14.97,26.85,29.02,42.27,15.79,17.37,32.02,28.65,44.02,35.69-14.81,7.4-31.81,17.27-49.57,30.42-14.79,10.93-27.18,21.99-37.35,32.14-.88,4.25,1.09,5.23,4.14,7.28,14.05,9.39,67.07,26.42,84.18,28.16,76.1,7.71,127.69-31.5,208.38-18.06,13.95,2.32,55.47,3.91,65.73-.83,6.18-2.84,12.96-15.1,17.96-27.99,4.6-11.84,7.7-24.23,7.45-30.35-3.04-74.58-104.22-99.44-131.27-34.81Z"/>
      <path class="cls-1" d="M1684.77,1375.66c-12.48-8.18-43.51-13.07-68.82-13.43l-1.24-.02c-35.31-1.04-68.63,9.37-39.87,21.85,24.19,9.76,69.7,13.53,99.73,6.86,14.45-3.47,19.03-9.49,10.19-15.25Z"/>
    </g>
  </g>
</svg>