<?xml version="1.0" encoding="UTF-8"?>
<svg xmlns="http://www.w3.org/2000/svg" viewBox="0 0 3550.32 1852.05">
  <defs>
    <style>
      .cls-1 {
        fill: #00496e;
      }
    </style>
  </defs>
  <g id="Layer_1" data-name="Layer 1">
    <g>
      <path class="cls-1" d="M10.2,1689.79c0-64.9,41.89-106.21,105.91-106.21,10.03,0,20.95.89,32.45,3.54v25.96c-10.92-2.95-20.95-4.43-32.16-4.43-49.27,0-78.77,31.86-78.77,81.13s30.09,81.13,79.95,81.13c10.03,0,20.06-1.47,30.98-4.42v25.96c-11.8,2.66-23.01,3.54-32.45,3.54-63.72,0-105.91-41.3-105.91-106.21Z"/>
      <path class="cls-1" d="M173.63,1718.11c0-45.14,32.75-78.47,77.29-78.47s77,33.34,77,78.47-32.75,78.18-77,78.18-77.29-33.34-77.29-78.18ZM250.93,1773.28c30.09,0,50.45-23.01,50.45-55.17s-20.36-55.17-50.45-55.17-50.74,22.72-50.74,55.17,20.36,55.17,50.74,55.17Z"/>
      <path class="cls-1" d="M368.93,1586.53h25.67v206.51h-25.67v-206.51Z"/>
      <path class="cls-1" d="M502.57,1796.58c-38.94,0-65.79-31.27-65.79-78.47s27.14-78.47,65.49-78.47c27.44,0,48.09,15.34,56.94,39.83v-92.93h25.67v206.51h-25.67v-36.29c-8.85,24.49-29.5,39.83-56.64,39.83ZM510.83,1773.57c29.8,0,48.38-24.19,48.38-48.38v-13.87c0-24.78-18.88-48.97-48.38-48.97-27.14,0-47.2,20.36-47.2,55.17s19.77,56.05,47.2,56.05Z"/>
      <path class="cls-1" d="M714.97,1586.53h28.62l38.65,174.35,43.07-174.35h27.44l43.37,174.35,38.06-174.35h28.62l-49.56,206.51h-32.75l-41.6-165.21-41.89,165.21h-32.45l-49.56-206.51Z"/>
      <path class="cls-1" d="M1075.18,1774.75c-8.56,13.57-24.19,21.54-43.96,21.54-27.73,0-48.68-16.23-48.68-45.43,0-30.98,22.72-45.73,50.74-45.73,16.82,0,31.86,5.61,40.71,17.11v-30.98c0-19.47-10.62-30.09-32.45-30.09-18.88,0-29.8,7.38-32.75,23.6h-22.72c2.95-30.98,24.78-45.43,57.53-45.43,36.29,0,56.05,18,56.05,51.63v102.07h-22.72l-1.77-18.29ZM1038.89,1775.34c20.36,0,35.11-10.62,35.11-26.85,0-15.34-13.57-25.37-33.63-25.37-18.29,0-31.27,8.26-31.27,26.26s12.98,25.96,29.8,25.96Z"/>
      <path class="cls-1" d="M1154.54,1665.01h-20.65v-22.42h20.65v-30.68l25.67-4.42v35.11h25.37v22.42h-25.37v105.62h25.96v22.42h-51.63v-128.04Z"/>
      <path class="cls-1" d="M1233.89,1718.11c0-46.91,26.26-78.47,75.82-78.47,40.12,0,67.85,21.54,68.44,64.31h-23.6c-1.77-26.55-18.59-41.01-45.73-41.01-36.58,0-51.92,26.55-49.27,61.95,7.96-19.47,24.78-26.55,42.19-26.55,8.26,0,17.11,1.47,25.08,5.01v22.13c-9.15-4.13-18.88-6.2-28.32-6.2-18.59,0-34.22,8.55-34.22,22.72,0,15.64,17.7,31.27,48.38,31.27,21.83,0,39.53-7.67,58.12-21.24v24.49c-13.28,10.03-33.04,19.77-61.07,19.77-50.45,0-75.82-32.45-75.82-78.18Z"/>
      <path class="cls-1" d="M1414.74,1642.59h25.67v41.6c7.38-28.03,23.9-43.37,48.09-43.66v28.03c-24.19-2.06-48.09,15.34-48.09,54.58v69.92h-25.67v-150.46Z"/>
      <path class="cls-1" d="M1494.1,1776.82c0-10.92,7.67-18.59,18.29-18.59s18.29,7.67,18.29,18.59-7.67,18.29-18.29,18.29-18.29-7.67-18.29-18.29Z"/>
      <path class="cls-1" d="M1657.83,1586.53h28.62l38.65,174.35,43.07-174.35h27.44l43.37,174.35,38.06-174.35h28.62l-49.56,206.51h-32.75l-41.6-165.21-41.89,165.21h-32.45l-49.56-206.51Z"/>
      <path class="cls-1" d="M2018.04,1774.75c-8.56,13.57-24.19,21.54-43.96,21.54-27.73,0-48.68-16.23-48.68-45.43,0-30.98,22.72-45.73,50.74-45.73,16.82,0,31.86,5.61,40.71,17.11v-30.98c0-19.47-10.62-30.09-32.45-30.09-18.88,0-29.8,7.38-32.75,23.6h-22.72c2.95-30.98,24.78-45.43,57.53-45.43,36.29,0,56.05,18,56.05,51.63v102.07h-22.72l-1.77-18.29ZM1981.75,1775.34c20.36,0,35.11-10.62,35.11-26.85,0-15.34-13.57-25.37-33.63-25.37-18.29,0-31.27,8.26-31.27,26.26s12.98,25.96,29.8,25.96Z"/>
      <path class="cls-1" d="M2091.2,1642.59h25.67v41.6c7.38-28.03,23.9-43.37,48.09-43.66v28.03c-24.19-2.06-48.09,15.34-48.09,54.58v69.92h-25.67v-150.46Z"/>
      <path class="cls-1" d="M2197.4,1642.59h25.67v34.52c7.38-23.01,24.78-38.06,51.63-38.06,25.37,0,41.89,15.05,45.43,39.83,7.08-23.6,24.78-39.83,52.22-39.83,29.5,0,46.32,19.47,46.32,50.45v103.55h-25.67v-94.11c0-23.6-10.33-36.88-30.68-36.88-24.49,0-41.3,19.18-41.3,44.55v86.44h-25.67v-94.11c0-23.6-10.33-36.88-30.68-36.88-24.49,0-41.6,19.18-41.6,44.55v86.44h-25.67v-150.46Z"/>
      <path class="cls-1" d="M2562.03,1586.53h49.56c43.37,0,71.1,24.78,71.1,67.85s-27.73,68.15-71.1,68.15h-23.01v70.51h-26.55v-206.51ZM2609.24,1699.52c28.91,0,46.02-17.41,46.02-45.14s-17.11-44.84-46.02-44.84h-20.65v89.98h20.65Z"/>
      <path class="cls-1" d="M2712.2,1718.11c0-46.91,26.26-78.47,75.82-78.47,40.12,0,67.85,21.54,68.44,64.31h-23.6c-1.77-26.55-18.59-41.01-45.73-41.01-36.58,0-51.92,26.55-49.27,61.95,7.96-19.47,24.78-26.55,42.19-26.55,8.26,0,17.11,1.47,25.08,5.01v22.13c-9.15-4.13-18.88-6.2-28.32-6.2-18.59,0-34.22,8.55-34.22,22.72,0,15.64,17.7,31.27,48.38,31.27,21.83,0,39.53-7.67,58.12-21.24v24.49c-13.28,10.03-33.04,19.77-61.07,19.77-50.45,0-75.82-32.45-75.82-78.18Z"/>
      <path class="cls-1" d="M2887.14,1718.11c0-45.14,32.75-78.47,77.29-78.47s77,33.34,77,78.47-32.75,78.18-77,78.18-77.29-33.34-77.29-78.18ZM2964.43,1773.28c30.09,0,50.45-23.01,50.45-55.17s-20.36-55.17-50.45-55.17-50.74,22.72-50.74,55.17,20.36,55.17,50.74,55.17Z"/>
      <path class="cls-1" d="M3082.43,1642.59h25.67v36.29c8.85-24.49,29.5-39.83,56.64-39.83,38.94,0,65.79,31.27,65.79,78.47s-27.14,78.77-65.49,78.77c-27.44,0-48.09-15.64-56.94-40.12v95.88h-25.67v-209.46ZM3156.48,1773.28c27.14,0,47.2-20.36,47.2-55.17s-19.77-56.05-47.5-56.05c-29.5,0-48.09,24.19-48.09,48.38v13.87c0,24.78,18.88,48.97,48.38,48.97Z"/>
      <path class="cls-1" d="M3272.42,1586.53h25.67v206.51h-25.67v-206.51Z"/>
      <path class="cls-1" d="M3340.57,1718.11c0-46.91,26.26-78.47,75.82-78.47,40.12,0,67.85,21.54,68.44,64.31h-23.6c-1.77-26.55-18.59-41.01-45.73-41.01-36.58,0-51.92,26.55-49.27,61.95,7.96-19.47,24.78-26.55,42.19-26.55,8.26,0,17.11,1.47,25.08,5.01v22.13c-9.15-4.13-18.88-6.2-28.32-6.2-18.59,0-34.22,8.55-34.22,22.72,0,15.64,17.7,31.27,48.38,31.27,21.83,0,39.53-7.67,58.12-21.24v24.49c-13.28,10.03-33.04,19.77-61.07,19.77-50.45,0-75.82-32.45-75.82-78.18Z"/>
      <path class="cls-1" d="M3513.74,1776.82c0-10.92,7.67-18.59,18.29-18.59s18.29,7.67,18.29,18.59-7.67,18.29-18.29,18.29-18.29-7.67-18.29-18.29Z"/>
    </g>
  </g>
  <g id="Layer_2" data-name="Layer 2">
    <g>
      <path class="cls-1" d="M1916.44,171.51c4.5-12.35-.33-27.15-10.59-30.88-9.29-3.38-17.47,1.81-20.86,11.1-3.59,9.85-.32,20.31,11.61,24.65,8.6,3.13,17.62,1.23,19.84-4.87Z"/>
      <path class="cls-1" d="M2410.75,856.39c-1.39-11.86,3.45-14.94,3.91-17.07,5.29-24.13,7.73-65.4,8.61-90.56,7.33-209.04-77.56-415.18-231.82-555.15-341.8-310.12-883.27-235.01-1115.35,165.34-80.1,138.18-102.89,285.94-93.25,444.86,1.24,20.61,12.83,70.72,5.22,87.65-5.22,11.62-21.27,13.95-14.77,34.15,9.22,28.69,70.5,19.48,93.29,21.07,16.56,1.14,37.66,4,45.16,20.66l-.49,6.94c-10.4,19.2-31.62,13.17-48.89,14.75-30.66,2.81-86.11,8.34-111.05,26.6-20.27,14.82-8.58,37.11,14.12,40.65,28.93,4.51,63.29-6.23,94.55-3.47,52.82,4.66,88.05,42.25,145.43,28.42,22.05-5.33,42.56-25.61,66.4-15.74,26.53,29.15-24.15,44.77-46.61,48.23-62.78,9.65-172.42-15.52-224.68,16.8-19.96,12.34-19.47,37.03,1.48,48.04,37.06,19.47,122.79,5.97,166.36,7.33,11.81-.46,37.05,5.96,41.05,6.06,15.26.41,55.98-8.94,45.64,23.65-3.81,12.01-43.99,13.56-56.79,21.56-11.04,6.89-8.46,13-13.68,22.31-10.23,18.21-37.39,8.92-52.82,20.27-13.66,19.67,9.87,30.77,26.46,34.87,59.03,14.63,144.3,3.01,204.89-3.69,43.46-4.8,147.4-26.07,181.18,5.22,14.75,13.68,18.19,38.76-1.63,49.37-28.35,15.16-94.72-10.52-128.8-8.07-17.97,1.31-28.06,15.2-13.78,28.78,24.66,23.42,99.45,24.64,132.58,26.27,71.08,3.52,142.84,2.13,213.82,6.47,73.84,4.49,171.21,22.53,242.59-.99,4.12-1.36,8.85-6.09,12.76-8.41,5.99-10.52-.78-20.9-10.94-25.36-26.39-11.59-77.7-2.25-95.94-22.67-19.35-21.66,15.64-37.88,32.26-43.55,144.49-49.25,243.19-9.02,243.19-9.02,19.9,8.68,40.22,10.11,50.05,1.04,10.12-9.34,8.77-20-8.84-31.85-10.92-7.35-24.91-5.64-29.22-5.17-63.16,6.99-142.7-18.67-148.65-55.62-5.9-36.64,43.57-20.55,69.23-3.98,25.19,18.11,193.54,34.43,176.24-11.99-7.17-19.24-26.66-1.31-58.13-8.2-30.45-6.66,7.2-30.45-44.71-29.8-26.59.33-12.15-31.56,2.29-47.2,20.06-21.72,75.6-28.28,121.12-16.04,25.58,6.88,87.76,6.05,103.91-24.99,12.05-23.16,1.83-56.02-15.88-73.53-25-24.71-113.86-18.84-69.8-62.71,29.17-29.05,91.42-17.75,119.56-48.8,7.06-23.88-24.86-17-26.82-33.74ZM2086.9,221.23c22.47,17.77,14.92,42.3-3.76,65.92-18.68,23.62-41,36.84-63.46,19.08-22.47-17.77-14.74-42.53,3.94-66.15,18.68-23.62,40.81-36.61,63.28-18.85ZM1964.44,167.12c6.73-12.14,25.82-8.81,37.7-2.23,16.01,8.88,24.12,26.54,14.67,43.58-17.18,30.99-62.47,8.24-71.71,24.9-.93,1.68-.25,2.9,2.2,4.26l26.86,14.89c1.81,1,3.41.54,4.42-1.27l3.08-5.55,15.24,8.45-7.73,13.95c-3.44,6.2-7.45,7.35-13.65,3.91l-47.78-26.49c-8.01-4.44-7.49-8.71-2.7-17.36,18.4-33.19,62.2-6.54,74.59-28.88,4.01-7.23,1.16-14.88-6.71-19.25-7.23-4.01-14.08-2.91-16.02.57l-2.22,4-15.24-8.45,5.01-9.04ZM1859.57,198.25s5.22,5.51,12.71,8.24c15.4,5.61,28.47-4.4,35.88-17.42l-.28-.1c-4.76,3.14-13.87,3.12-20.94.55-19.42-7.07-25.98-26.59-19.57-44.21,6.62-18.17,24.92-28.32,44.49-21.2,20.39,7.43,31.95,30.49,21.34,59.62-9.55,26.22-35.25,50.64-65.77,39.53-12.49-4.55-18.74-11.54-18.74-11.54l10.88-13.48ZM1778.95,182.61l22.13,4.51,11.61-57c.71-3.47,1.56-6.92,1.56-6.92l-.29-.06s-1.66,2.22-5.66,4.87l-9.84,6.13-8.64-13.81,30.79-19.49,17.07,3.48-17.65,86.66,22.13,4.51-3.27,16.06-63.22-12.88,3.27-16.06ZM1713.23,89.06c6.94-.17,10.11,2.85,10.29,9.78l.4,15.94-17.56.44-.16-6.35c-.05-2.07-1.26-3.22-3.33-3.17l-23.62.59.69,27.45,33.95-.85.41,16.38-33.95.85.62,24.94c.05,2.07,1.26,3.22,3.33,3.16l24.21-.61c2.07-.05,3.22-1.26,3.17-3.33l-.16-6.35,17.56-.44.4,15.94c.18,7.08-2.85,10.11-9.79,10.29l-47.53,1.19c-7.08.18-10.11-2.7-10.29-9.79l-1.97-78.37-9.59.24-.41-16.38,63.32-1.59ZM1583.91,99.36c13.16-2.72,40.03-2.54,43.64,14.96l2.36,11.42-17.21,3.55-1.19-5.78c-1.55-7.52-14.56-8.45-23.53-6.6-18.36,3.79-30.11,19.93-25.69,41.33,4.15,20.1,22.24,33.25,40.89,29.4,19.38-4,28.28-20.01,28.28-20.01l12.78,11.53s-11.25,20.72-37.71,26.18c-31.38,6.48-57.64-12.67-63.91-43.04-6.12-29.64,11.49-56.8,41.28-62.95ZM1436.96,149.65l59.45,37.55c6.19,3.92,13.85,10.11,13.85,10.11l.27-.12s-4.4-7.59-6.8-13.15l-19-44.06c-2.75-6.37-1.26-10.39,5.24-13.19l17.35-7.48,6.49,15.05-5.83,2.51c-1.9.82-2.52,2.37-1.7,4.27l33.74,78.23-15.86,6.84-59.53-37.36c-6.13-3.79-13.85-10.11-13.85-10.11l-.27.12s4.4,7.59,6.79,13.15l18.94,43.93c2.81,6.51,1.26,10.39-5.24,13.2l-17.35,7.48-6.49-15.05,5.83-2.51c1.9-.82,2.51-2.37,1.7-4.27l-33.74-78.23,16-6.9ZM1393.05,173.08l8.68,13.9-8.89,5.55,38.18,61.11,8.89-5.55,8.68,13.9-33.31,20.81-8.68-13.9,8.89-5.55-38.18-61.11-8.89,5.55-8.68-13.9,33.31-20.81ZM1314.77,225.21c9.52-7.72,27.82-15.15,37.21-3.57l6.14,7.57-13.53,10.97-2.98-3.67c-3.07-3.78-10.5-1.94-15.89,2.44-6.88,5.58-9.04,13.23-4.86,18.39,11.25,13.87,47.32-19.94,68.99,6.78,10.51,12.96,9.46,32.06-7.62,45.91-18,14.6-38.21,10.08-38.21,10.08l-.07-17.43s16.18,2.84,27.54-6.36c6.19-5.02,9-12.81,3.88-19.12-11.25-13.88-48.62,18.34-69.18-7-10.7-13.19-7.13-32.23,8.58-44.98ZM1782.61,1331.95c-11.38,13.66-34.73,4.54-49.08,8.72-4.92,1.43-6.49,1.99-16.65,3.16-7.84.9-20.37-.48-24.85-1.44-14.07-3.34-22.77-8.74-22.37-15.52.23-3.9,1.82-7.9,5.13-11.5,1.57-1.7,4.83-5.92,14.35-8.97,10.7-3.44,17.05-3.27,39.8-.58,12.98,1.92,58.69,8.71,53.67,26.12ZM2128.88,958.42c-42.2,12.3-93.27,13.1-136.15,22.7-14.04,3.13-42.95,8.03-37.23,27.57,2.06,7.03,19.47,12.71,26.22,14.07,17.99,3.64,76.03-2.42,70.84,28.64-3.1,8.42-13.31,15.03-22.22,16.03-46.81,5.28-103.94-10.64-150.64-16.78-32.49-4.27-99.06-12.44-127.73,1.04-28.83,13.56-23.65,45.28,2.89,58.13,20.08,9.7,49.98,9.56,72.08,8.37,24.84-1.34,78.87-18.68,83.35,17.51-2.76,8.27-10.19,13.32-18.28,15.79-29.66,9.05-66.11,2.72-96.83,4.85-8.53.58-40.82,4.93-43.21,14.12-.2.49-.48,1.41-.35,2.54.25,2.1,1.79,3.29,2.1,3.58,2.04,1.97,34.4,11.41,36.49,21.13.52,2.39-.11,5.19-2.32,8.53-5.16,5.91-9.43,8.66-15.93,9.46-37.39,4.68-80.88-1.77-118.71-4.32-19.81-1.33-56.91,2.37-73.02-9.58-11.57-8.58-6.94-23.28,5.89-27.91,7.83-2.82,28.33-4.34,37.51-4.87,20.27-1.16,42.36,2.48,62.08-3.57,24.56-7.56,11.98-23.23-6.35-28.86-36.64-11.27-91.86-6.55-129.31,1.23-39,8.12-92.42,30.7-131.63,26.72-38.95-3.98-51.58-34.99-8.12-47.85,13.82-4.1,67.51-4.07,67.51-20.73-13.53-26.9-61.26,3.93-75.61-25.42,5.45-14.38,23.86-14.82,37.18-15.4,24.13-1.04,60.39,7.37,82.02,1.11,17.46-5.07,19.86-19.57,4.25-28.57-11.42-6.57-44.65-10.4-58.69-11.21-27.7-1.62-93.02,5.72-114.18-10.77-13.07-10.19-5.5-22.73,7.56-27.91,12.75-5.04,27.84-3,40.67-8.03,7.08-4.99,5.7-11.57-.34-16.68-28.16-8.22-56.21.56-84.4,3.93-22.41,2.69-54.85,9.1-76.07,6.65-9.26-1.05-24.5-6.93-24.5-18.05-.02-25.75,62.83-8.15,75.27-18.14,21.37-17.17-11.45-29.81-16.71-38.07-16.37-25.73,24.1-15.94,29.56-27.43,5.21-10.99-10.33-52.65-13.21-67.29-31.65-161.17,32.86-328.58,166.09-423.67,299.16-213.51,683.91,27.91,659.34,383.99-1.57,22.84-9.56,66.55-18.63,87.25-11.74,26.8-24.67,18.12-37.81,31.02-15.69,15.42,4.48,25.44,19.42,26.78,23.35,2.09,73.34-3.88,80.98,27.07,4.46,18.04-17.07,27.19-31.12,31.29Z"/>
      <path class="cls-1" d="M2030.48,292.56c11.23,8.88,24.55-1.29,37.37-17.5,12.64-15.98,19.38-31.17,8.15-40.05-11.23-8.88-24.46,1.17-37.1,17.15-12.82,16.21-19.65,31.51-8.42,40.4Z"/>
      <path class="cls-1" d="M1668.22,1453.28c-26.32-7.92-95.22-6.84-124.52-4.86-10,.67-40.3,4.13-44.07,13.39l1.37,9.4c3.31,1.89,6.42,4.42,9.98,5.89,24.97,10.34,127.72,10.25,157.88,7.52,9.67-.88,15.87-4.35,19.27-13.85-2.12-9.76-10.89-14.77-19.91-17.48Z"/>
      <path class="cls-1" d="M2168.27,1347.18c-13.49-8.19-63.06-10.08-79.58-8.21-9.66,1.09-33.68,5.02-33.38,17.47.13,5.55,11.25,11.9,16.35,13.21,23.75,6.12,74.59,7.91,97.08-1.47,7.67-3.2,9.78-8.77,5.27-16.17-1.72-1.83-3.59-3.52-5.74-4.83Z"/>
      <path class="cls-1" d="M1163.33,1230.11c4.92-16.53-20.74-17.46-32.31-16.42-7.29.65-45.01,7.06-28.69,17.61,15.15,9.79,45.07,6.05,61-1.18Z"/>
      <path class="cls-1" d="M1819.15,834.37c-7.15,17.07-2.35,41.71-22.36,49.71-1.84.73-3.52.94-5.1.71-12.22-1.75-16.73-25.49-22.65-40.59-3.64-9.29-7.32-13.83-73.85-69.6-42.71-35.79-47.58-39.28-57.91-41.11-27.52-4.93-53.11,7.61-71.91,20.76-20.22,14.12-46.3,39.05-66.42,50.08-15.43,8.44-35.02,8.78-49.95,19.38-4.07,5.94-29.85,28.66-24.76,35.92,5.8,2.25,13.41,1.06,19.45-.44,9.12-2.26,43.7-21.54,47.92-6.4l-3.97,18.6c7.67,4.14,14.91-10.02,17.78-16.1,3.4-7.16,4.95-18.33,8.87-25.03,10.98-18.87,76.25-34.6,96.15-47.89,2.45-.36,4.92-.7,7.37-1.05,4.85,9.67,12.42,22.28,24.08,35.07,13.1,14.41,26.56,23.77,36.52,29.61-12.29,6.14-26.39,14.33-41.13,25.24-12.27,9.07-22.55,18.24-30.99,26.67-.73,3.52.9,4.34,3.44,6.04,11.66,7.79,55.65,21.92,69.84,23.36,63.13,6.4,105.94-26.13,172.89-14.99,11.57,1.92,46.02,3.25,54.53-.69,5.13-2.36,10.75-12.52,14.9-23.22,3.81-9.83,6.39-20.1,6.18-25.18-2.52-61.87-86.46-82.5-108.91-28.88Z"/>
      <path class="cls-1" d="M2338.67,1143.59c-10.36-6.78-36.1-10.85-57.09-11.15h-1.03c-29.29-.88-56.94,7.76-33.08,18.11,20.07,8.1,57.83,11.22,82.74,5.69,11.99-2.88,15.79-7.88,8.46-12.65Z"/>
    </g>
    <path class="cls-1" d="M0,0h366.42v1071.67h583.1v307.31H0V0Z"/>
    <path class="cls-1" d="M3405.32,429.51c-31.66-18.98-66-37.02-103.02-54.12-37.04-17.08-74.54-32.28-112.52-45.58-37.98-13.28-75.48-23.88-112.5-31.8-37.04-7.9-70.74-11.86-101.12-11.86-17.08,0-33.7,1.58-49.84,4.74-16.16,3.16-30.72,8.54-43.68,16.14-12.98,7.6-23.26,17.26-30.86,28.96-7.6,11.72-11.38,26.74-11.38,45.1,0,28.48,9.96,51.9,29.9,70.26,19.94,18.36,46.36,34.34,79.28,47.94,32.92,13.62,70.26,26.12,112.04,37.52,41.76,11.4,84.48,24.2,128.16,38.44,43.68,14.24,86.56,31.18,128.66,50.8,42.08,19.62,79.42,44.3,112.02,74.06,32.6,29.76,58.86,65.98,78.8,108.7,19.94,42.72,29.92,94.78,29.92,156.18,0,72.16-15.04,134.2-45.1,186.11-30.08,51.9-69.96,94.78-119.64,128.64-49.68,33.88-106.8,58.88-171.36,75.02-64.56,16.12-131.02,24.2-199.38,24.2-54.44,0-109.53-4.76-165.23-14.24-55.7-9.48-110.14-23.42-163.3-41.78-53.16-18.36-104.12-40.98-152.86-67.88-48.74-26.9-94-57.12-135.76-90.68l136.72-272.49c32.92,28.48,69.62,55.22,110.14,80.22,40.5,25,82.28,46.68,125.32,65.04,43.04,18.36,86.08,32.76,129.12,43.2,43.04,10.44,82.92,15.66,119.64,15.66,20.88,0,40.96-1.88,60.28-5.68,19.3-3.8,36.7-10.28,52.22-19.46,15.5-9.18,27.84-20.9,37.02-35.14s13.78-31.8,13.78-52.7c0-29.12-9.98-53-29.92-71.68-19.94-18.66-46.36-34.8-79.28-48.42-32.92-13.6-70.42-25.8-112.5-36.56-42.1-10.76-84.98-22.94-128.66-36.54-43.68-13.6-86.56-29.74-128.64-48.42-42.08-18.68-79.42-42.42-112.02-71.22-32.6-28.8-59.04-64.08-79.28-105.86-20.26-41.76-30.38-92.4-30.38-151.92,0-67.08,13.92-126.1,41.76-177.06,27.84-50.96,65.82-93.84,113.94-128.66,48.1-34.8,104.74-60.92,169.94-78.32,65.2-17.4,135.14-26.1,209.85-26.1,47.46,0,95.24,3.48,143.36,10.44,48.1,6.96,94.94,17.1,140.52,30.38,45.56,13.3,89.56,29.12,131.96,47.48,42.4,18.36,81.34,39.24,116.81,62.66l-132.92,276.29Z"/>
  </g>
</svg>