<?xml version="1.0" encoding="UTF-8"?>
<svg xmlns="http://www.w3.org/2000/svg" viewBox="0 0 5487.85 1788.57">
  <defs>
    <style>
      .cls-1 {
        fill: #fff;
      }
    </style>
  </defs>
  <g id="Layer_1" data-name="Layer 1">
    <g>
      <path class="cls-1" d="M2326.99,477.64v178.96h-343.08V84.83h137.22v547.08c66.88-12.57,184.9-90.92,205.83-154.28h.03Z"/>
      <path class="cls-1" d="M2759.31,656.6h-343.08V84.83h331.65v123.86c-16.23-61.98-77.07-100.96-165.81-100.96h-28.59v217.29h52.38l-.59-.1c42.3,0,104.62-32.25,119.75-72.86v168.78c-15.09-34.18-79.49-72.86-119.75-72.86l.69-.1h-52.48v285.9c88.74,0,181.73-72.86,205.83-156.11v178.93Z"/>
      <path class="cls-1" d="M2847.74,656.64V84.83h137.22v571.8h-137.22Z"/>
      <path class="cls-1" d="M3484.97,84.83v571.8h-138.25l-250.54-495.73v272.99c0,61.43,87.01,199.89,156.11,222.78h-178.96V84.83h138.25l250.54,495.98v-273.19c0-61.53-86.91-199.89-155.97-222.78h178.83Z"/>
      <path class="cls-1" d="M3790.42,668.96c-139.29,0-211.46-73.75-216.95-172.44l134.39-45.75c-.69,22.86,1.24,55.35,3.76,72.72,15.09,104.87,50.45,128.9,111.39,119.06,40.81-6.63,87.26-65.54,46.3-148.44-52.28-105.8-287.49-73.06-273.33-262.91,9.74-130.14,110.8-158.73,194.4-158.73s186.63,49.62,194.05,138.7l-137.22,45.75c1.04-17.96,1.24-39.33-.79-51.1-17.85-100.17-59.36-111.6-88.5-106.94-45.06,7.32-52.83,78.69-23.45,136.22,44.82,87.95,251.03,43.23,273.19,238.91,14.29,126.48-73.2,194.99-217.29,194.99l.04-.03Z"/>
      <path class="cls-1" d="M4504.15,84.83v178.96c-28.04-66.85-77.21-120.65-148.68-143.75v536.58h-137.22V119.71c-65.99,21.62-116.95,71.27-148.68,144.09V84.83h434.58Z"/>
      <path class="cls-1" d="M4935.69,656.6h-343.08V84.83h331.65v123.86c-16.23-61.98-77.07-100.96-165.81-100.96h-28.59v217.29h52.38l-.59-.1c42.3,0,104.62-32.25,119.75-72.86v168.78c-15.09-34.18-79.49-72.86-119.75-72.86l.69-.1h-52.48v285.9c88.74,0,181.73-72.86,205.83-156.11v178.93Z"/>
      <path class="cls-1" d="M5383.64,501.64l78.35,156.11h-53.07c-61.63,0-117.92-34.77-145.58-89.78l-75.58-150.62h-26.42v239.25h-137.22V84.8h137.22c121.2,0,263.01,39.02,263.01,175.44,0,58.56-22.65,97.79-62.67,122.47-23.55,14.54-53.17,23.79-87.7,29.18,46.75,12.26,87.25,44.96,109.66,89.78v-.03ZM5195.6,394.52c31.66,0,107.25-22.89,90.22-139.53-13.81-94.68-71.92-147.3-106.8-147.3h-17.71v286.8h34.32l-.04.03Z"/>
      <path class="cls-1" d="M2441.35,1075.24c0,157.87-84.53,297.33-228.72,297.33s-228.72-139.46-228.72-297.33,84.53-297.33,228.72-297.33,228.72,139.46,228.72,297.33ZM2302.95,1060.6c-21.82-134.35-68.61-266.91-134.28-256.24-65.78,10.67-68.16,151.2-46.34,285.56,21.82,134.35,68.51,266.91,134.28,256.24,65.67-10.64,68.16-151.2,46.34-285.56Z"/>
      <path class="cls-1" d="M2638.49,789.34c121.2,0,263.01,39.02,263.01,175.44,0,58.56-22.65,97.79-62.67,122.47-39.92,24.62-97.1,34.67-166.05,34.67h-34.32v239.25h-137.22v-571.8h137.22l.04-.03ZM2672.7,1099.07c31.66,0,107.25-22.89,90.22-139.53-13.81-94.68-71.92-147.3-106.8-147.3h-17.71v286.8h34.32l-.04.04Z"/>
      <path class="cls-1" d="M3304.43,1361.14h-343.08v-571.77h331.65v123.86c-16.23-61.98-77.07-100.96-165.81-100.96h-28.59v217.29h52.38l-.59-.1c42.3,0,104.62-32.25,119.75-72.86v168.78c-15.09-34.18-79.49-72.86-119.75-72.86l.69-.1h-52.48v285.9c88.74,0,181.73-72.86,205.83-156.11v178.93Z"/>
      <path class="cls-1" d="M3775.91,789.38v571.8h-138.25l-250.54-495.74v272.99c0,61.43,87.01,199.89,156.11,222.78h-178.96v-571.84h138.25l250.54,495.98v-273.19c0-61.53-86.91-199.89-155.97-222.78h178.83Z"/>
      <path class="cls-1" d="M4286.38,1373.51c-139.29,0-211.46-73.75-216.95-172.44l134.39-45.75c-.69,22.86,1.24,55.35,3.76,72.72,15.09,104.87,50.45,128.9,111.39,119.06,40.81-6.63,87.26-65.54,46.3-148.44-52.28-105.8-287.49-73.06-273.33-262.91,9.74-130.14,110.8-158.73,194.4-158.73s186.63,49.62,194.05,138.7l-137.22,45.75c1.04-17.96,1.24-39.33-.79-51.1-17.85-100.17-59.36-111.6-88.5-106.94-45.06,7.32-52.83,78.69-23.45,136.22,44.82,87.95,251.03,43.23,273.19,238.91,14.29,126.48-73.2,194.99-217.29,194.99l.04-.03Z"/>
      <path class="cls-1" d="M4908.59,1361.14h-343.08v-571.77h331.65v123.86c-16.23-61.98-77.07-100.96-165.81-100.96h-28.59v217.29h52.38l-.59-.1c42.3,0,104.62-32.25,119.75-72.86v168.78c-15.09-34.18-79.49-72.86-119.75-72.86l.69-.1h-52.48v285.9c88.74,0,181.73-72.86,205.83-156.11v178.93Z"/>
      <path class="cls-1" d="M5460.11,1361.14h-144.19l-73.86-228.72h-181.49c-21.72,88.19,15.43,177.96,74.69,228.72h-166.84l170.85-571.77h136.22l184.63,571.77ZM5234.74,1109.56l-86.91-268.84-80.38,268.84h167.29Z"/>
    </g>
    <g>
      <path class="cls-1" d="M1995.87,1606.78c0-64.02,41.32-104.76,104.47-104.76,9.89,0,20.66.87,32.01,3.49v25.61c-10.77-2.91-20.66-4.37-31.72-4.37-48.6,0-77.7,31.43-77.7,80.02s29.68,80.03,78.86,80.03c9.89,0,19.79-1.46,30.55-4.37v25.61c-11.64,2.62-22.7,3.49-32.01,3.49-62.86,0-104.47-40.74-104.47-104.76Z"/>
      <path class="cls-1" d="M2157.09,1634.72c0-44.52,32.3-77.41,76.24-77.41s75.95,32.88,75.95,77.41-32.3,77.12-75.95,77.12-76.24-32.88-76.24-77.12ZM2233.33,1689.13c29.68,0,49.76-22.7,49.76-54.42s-20.08-54.42-49.76-54.42-50.05,22.41-50.05,54.42,20.08,54.42,50.05,54.42Z"/>
      <path class="cls-1" d="M2349.73,1504.93h25.32v203.7h-25.32v-203.7Z"/>
      <path class="cls-1" d="M2481.55,1712.12c-38.41,0-64.89-30.85-64.89-77.41s26.77-77.41,64.6-77.41c27.06,0,47.43,15.13,56.16,39.29v-91.67h25.32v203.7h-25.32v-35.79c-8.73,24.15-29.1,39.29-55.87,39.29ZM2489.7,1689.42c29.39,0,47.72-23.86,47.72-47.72v-13.68c0-24.44-18.62-48.31-47.72-48.31-26.77,0-46.56,20.08-46.56,54.42s19.5,55.29,46.56,55.29Z"/>
      <path class="cls-1" d="M2691.06,1504.93h28.23l38.12,171.98,42.49-171.98h27.06l42.78,171.98,37.54-171.98h28.23l-48.89,203.7h-32.3l-41.03-162.96-41.32,162.96h-32.01l-48.89-203.7Z"/>
      <path class="cls-1" d="M3046.37,1690.59c-8.44,13.39-23.86,21.24-43.36,21.24-27.35,0-48.02-16-48.02-44.81,0-30.55,22.41-45.1,50.05-45.1,16.59,0,31.43,5.53,40.16,16.88v-30.56c0-19.21-10.48-29.68-32.01-29.68-18.62,0-29.39,7.28-32.3,23.28h-22.41c2.91-30.56,24.44-44.81,56.75-44.81,35.79,0,55.29,17.75,55.29,50.92v100.69h-22.41l-1.75-18.04ZM3010.58,1691.17c20.08,0,34.63-10.48,34.63-26.48,0-15.13-13.39-25.03-33.17-25.03-18.04,0-30.85,8.15-30.85,25.9s12.8,25.61,29.39,25.61Z"/>
      <path class="cls-1" d="M3124.65,1582.34h-20.37v-22.12h20.37v-30.26l25.32-4.37v34.63h25.03v22.12h-25.03v104.18h25.61v22.12h-50.92v-126.29Z"/>
      <path class="cls-1" d="M3202.93,1634.72c0-46.27,25.9-77.41,74.79-77.41,39.58,0,66.93,21.24,67.51,63.44h-23.28c-1.75-26.19-18.33-40.45-45.11-40.45-36.08,0-51.22,26.19-48.6,61.11,7.86-19.21,24.44-26.19,41.61-26.19,8.15,0,16.88,1.46,24.74,4.95v21.83c-9.02-4.07-18.62-6.11-27.94-6.11-18.33,0-33.76,8.44-33.76,22.41,0,15.42,17.46,30.85,47.72,30.85,21.53,0,38.99-7.57,57.33-20.95v24.15c-13.09,9.89-32.59,19.5-60.24,19.5-49.76,0-74.79-32.01-74.79-77.12Z"/>
      <path class="cls-1" d="M3381.31,1560.22h25.32v41.03c7.27-27.65,23.57-42.78,47.43-43.07v27.65c-23.86-2.04-47.43,15.13-47.43,53.83v68.97h-25.32v-148.41Z"/>
      <path class="cls-1" d="M3459.59,1692.62c0-10.77,7.57-18.33,18.04-18.33s18.04,7.57,18.04,18.33-7.57,18.04-18.04,18.04-18.04-7.57-18.04-18.04Z"/>
      <path class="cls-1" d="M3621.1,1504.93h28.23l38.12,171.98,42.49-171.98h27.06l42.78,171.98,37.54-171.98h28.23l-48.89,203.7h-32.3l-41.03-162.96-41.32,162.96h-32.01l-48.89-203.7Z"/>
      <path class="cls-1" d="M3976.41,1690.59c-8.44,13.39-23.86,21.24-43.36,21.24-27.35,0-48.02-16-48.02-44.81,0-30.55,22.41-45.1,50.05-45.1,16.59,0,31.43,5.53,40.16,16.88v-30.56c0-19.21-10.48-29.68-32.01-29.68-18.62,0-29.39,7.28-32.3,23.28h-22.41c2.91-30.56,24.44-44.81,56.75-44.81,35.79,0,55.29,17.75,55.29,50.92v100.69h-22.41l-1.75-18.04ZM3940.61,1691.17c20.08,0,34.63-10.48,34.63-26.48,0-15.13-13.39-25.03-33.17-25.03-18.04,0-30.85,8.15-30.85,25.9s12.8,25.61,29.39,25.61Z"/>
      <path class="cls-1" d="M4048.57,1560.22h25.32v41.03c7.27-27.65,23.57-42.78,47.43-43.07v27.65c-23.86-2.04-47.43,15.13-47.43,53.83v68.97h-25.32v-148.41Z"/>
      <path class="cls-1" d="M4153.33,1560.22h25.32v34.05c7.27-22.7,24.44-37.54,50.92-37.54,25.03,0,41.32,14.84,44.81,39.29,6.98-23.28,24.44-39.29,51.51-39.29,29.1,0,45.69,19.21,45.69,49.76v102.14h-25.32v-92.83c0-23.28-10.19-36.38-30.26-36.38-24.15,0-40.74,18.92-40.74,43.94v85.26h-25.32v-92.83c0-23.28-10.19-36.38-30.26-36.38-24.15,0-41.03,18.92-41.03,43.94v85.26h-25.32v-148.41Z"/>
      <path class="cls-1" d="M4513.01,1504.93h48.89c42.78,0,70.13,24.44,70.13,66.93s-27.35,67.22-70.13,67.22h-22.7v69.55h-26.19v-203.7ZM4559.57,1616.38c28.52,0,45.4-17.17,45.4-44.52s-16.88-44.23-45.4-44.23h-20.37v88.75h20.37Z"/>
      <path class="cls-1" d="M4661.13,1634.72c0-46.27,25.9-77.41,74.79-77.41,39.58,0,66.93,21.24,67.51,63.44h-23.28c-1.75-26.19-18.33-40.45-45.11-40.45-36.08,0-51.22,26.19-48.6,61.11,7.86-19.21,24.44-26.19,41.61-26.19,8.15,0,16.88,1.46,24.74,4.95v21.83c-9.02-4.07-18.62-6.11-27.94-6.11-18.33,0-33.76,8.44-33.76,22.41,0,15.42,17.46,30.85,47.72,30.85,21.53,0,38.99-7.57,57.33-20.95v24.15c-13.09,9.89-32.59,19.5-60.24,19.5-49.76,0-74.79-32.01-74.79-77.12Z"/>
      <path class="cls-1" d="M4833.69,1634.72c0-44.52,32.3-77.41,76.24-77.41s75.95,32.88,75.95,77.41-32.3,77.12-75.95,77.12-76.24-32.88-76.24-77.12ZM4909.93,1689.13c29.68,0,49.76-22.7,49.76-54.42s-20.08-54.42-49.76-54.42-50.05,22.41-50.05,54.42,20.08,54.42,50.05,54.42Z"/>
      <path class="cls-1" d="M5026.33,1560.22h25.32v35.79c8.73-24.15,29.1-39.29,55.87-39.29,38.41,0,64.89,30.85,64.89,77.41s-26.77,77.7-64.6,77.7c-27.06,0-47.43-15.42-56.16-39.58v94.58h-25.32v-206.61ZM5099.37,1689.13c26.77,0,46.56-20.08,46.56-54.42s-19.5-55.29-46.85-55.29c-29.1,0-47.43,23.86-47.43,47.72v13.68c0,24.44,18.62,48.31,47.72,48.31Z"/>
      <path class="cls-1" d="M5213.73,1504.93h25.32v203.7h-25.32v-203.7Z"/>
      <path class="cls-1" d="M5280.95,1634.72c0-46.27,25.9-77.41,74.79-77.41,39.58,0,66.93,21.24,67.51,63.44h-23.28c-1.75-26.19-18.33-40.45-45.11-40.45-36.08,0-51.22,26.19-48.6,61.11,7.86-19.21,24.44-26.19,41.61-26.19,8.15,0,16.88,1.46,24.74,4.95v21.83c-9.02-4.07-18.62-6.11-27.94-6.11-18.33,0-33.76,8.44-33.76,22.41,0,15.42,17.46,30.85,47.72,30.85,21.53,0,38.99-7.57,57.33-20.95v24.15c-13.09,9.89-32.59,19.5-60.24,19.5-49.76,0-74.79-32.01-74.79-77.12Z"/>
      <path class="cls-1" d="M5451.77,1692.62c0-10.77,7.57-18.33,18.04-18.33s18.04,7.57,18.04,18.33-7.57,18.04-18.04,18.04-18.04-7.57-18.04-18.04Z"/>
    </g>
  </g>
  <g id="Layer_2" data-name="Layer 2">
    <g>
      <path class="cls-1" d="M1175.8,203.98c5.42-14.88-.4-32.72-12.78-37.22-11.21-4.08-21.06,2.18-25.14,13.39-4.32,11.87-.39,24.48,13.99,29.71,10.37,3.77,21.24,1.48,23.92-5.88Z"/>
      <path class="cls-1" d="M1313.26,349.87c13.54,10.71,29.59-1.56,45.04-21.1,15.23-19.26,23.35-37.57,9.81-48.28-13.54-10.71-29.48,1.42-44.71,20.68-15.45,19.54-23.69,37.99-10.15,48.69Z"/>
      <path class="cls-1" d="M1771.66,1029.49c-1.67-14.29,4.16-18.01,4.72-20.57,6.38-29.08,9.31-78.82,10.38-109.16,8.84-251.96-93.49-500.42-279.42-669.13C1095.35-143.16,442.72-52.62,162.99,429.92c-96.54,166.55-124.01,344.64-112.4,536.19,1.5,24.84,15.47,85.24,6.3,105.65-6.3,14.01-25.64,16.82-17.8,41.17,11.12,34.58,84.98,23.48,112.44,25.39,19.96,1.37,45.39,4.82,54.44,24.9l-.59,8.37c-12.53,23.14-38.11,15.88-58.93,17.78-36.96,3.38-103.78,10.05-133.85,32.06-24.43,17.86-10.34,44.73,17.02,49,34.87,5.44,76.28-7.51,113.96-4.18,63.67,5.62,106.12,50.93,175.29,34.25,26.58-6.42,51.3-30.87,80.03-18.97,31.98,35.14-29.1,53.96-56.18,58.13-75.66,11.63-207.82-18.71-270.8,20.24-24.06,14.87-23.46,44.63,1.78,57.9,44.67,23.46,148.01,7.2,200.51,8.84,14.23-.56,44.66,7.18,49.48,7.3,18.4.49,67.47-10.78,55,28.51-4.59,14.47-53.02,16.35-68.44,25.99-13.31,8.31-10.19,15.67-16.49,26.89-12.33,21.95-45.06,10.75-63.67,24.43-16.47,23.71,11.9,37.08,31.89,42.03,71.15,17.64,173.93,3.63,246.95-4.45,52.38-5.78,177.66-31.42,218.38,6.3,17.78,16.49,21.93,46.72-1.97,59.5-34.17,18.28-114.16-12.68-155.25-9.72-21.66,1.58-33.82,18.32-16.61,34.68,29.72,28.22,119.87,29.7,159.8,31.67,85.67,4.25,172.17,2.56,257.72,7.79,89,5.41,206.36,27.16,292.4-1.19,4.96-1.64,10.67-7.34,15.38-10.13,7.22-12.68-.94-25.19-13.19-30.56-31.81-13.97-93.65-2.71-115.64-27.32-23.32-26.11,18.85-45.66,38.89-52.49,174.15-59.36,293.12-10.87,293.12-10.87,23.98,10.46,48.48,12.19,60.32,1.26,12.2-11.26,10.58-24.11-10.65-38.39-13.17-8.86-30.02-6.8-35.22-6.23-76.13,8.42-172-22.5-179.18-67.05-7.12-44.16,52.51-24.77,83.44-4.8,30.36,21.82,233.28,41.5,212.42-14.46-8.64-23.19-32.14-1.58-70.06-9.88-36.7-8.03,8.67-36.7-53.89-35.92-32.05.4-14.64-38.04,2.76-56.89,24.18-26.18,91.12-34.08,145.99-19.33,30.83,8.29,105.78,7.3,125.25-30.12,14.52-27.92,2.21-67.52-19.14-88.62-30.13-29.78-137.23-22.71-84.13-75.59,35.16-35.01,110.18-21.39,144.11-58.83,8.51-28.78-29.96-20.49-32.33-40.67ZM1381.26,263.88c27.08,21.41,17.99,50.98-4.52,79.46s-49.41,44.42-76.49,23c-27.08-21.41-17.77-51.26,4.74-79.73,22.52-28.48,49.19-44.14,76.27-22.72ZM1233.67,198.69c8.11-14.63,31.12-10.63,45.44-2.69,19.3,10.7,29.07,31.98,17.68,52.53-20.7,37.36-75.3,9.95-86.43,30.03-1.12,2.02-.31,3.49,2.65,5.13l32.38,17.94c2.18,1.21,4.12.65,5.32-1.53l3.71-6.69,18.37,10.18-9.32,16.81c-4.14,7.47-8.98,8.86-16.45,4.72l-57.59-31.92c-9.65-5.35-9.03-10.5-3.25-20.93,22.17-40,74.97-7.89,89.9-34.82,4.83-8.72,1.4-17.94-8.1-23.21-8.72-4.83-16.98-3.51-19.31.69l-2.67,4.83-18.37-10.18,6.04-10.9ZM1107.25,236.22s6.29,6.65,15.32,9.93c18.56,6.76,34.32-5.31,43.25-21l-.33-.12c-5.73,3.78-16.71,3.77-25.24.66-23.41-8.52-31.33-32.04-23.6-53.28,7.97-21.91,30.04-34.14,53.62-25.56,24.58,8.95,38.52,36.74,25.74,71.86-11.5,31.61-42.48,61.05-79.28,47.66-15.05-5.48-22.59-13.9-22.59-13.9l13.11-16.25ZM1010.11,217.39l26.68,5.43,13.99-68.7c.85-4.19,1.88-8.33,1.88-8.33l-.35-.07s-2,2.68-6.83,5.88l-11.86,7.39-10.41-16.65,37.11-23.5,20.58,4.19-21.27,104.45,26.68,5.43-3.94,19.36-76.2-15.52,3.94-19.35ZM930.91,104.64c8.36-.21,12.19,3.43,12.4,11.79l.48,19.21-21.17.53-.19-7.65c-.06-2.49-1.52-3.88-4.01-3.81l-28.46.72.83,33.09,40.92-1.03.5,19.75-40.92,1.03.76,30.06c.06,2.49,1.52,3.88,4.01,3.82l29.18-.74c2.49-.06,3.88-1.52,3.81-4.01l-.19-7.65,21.17-.53.48,19.21c.22,8.54-3.43,12.19-11.79,12.4l-57.28,1.44c-8.54.22-12.19-3.25-12.4-11.79l-2.38-94.46-11.56.29-.5-19.75,76.32-1.92ZM775.07,117.06c15.86-3.27,48.25-3.06,52.61,18.03l2.84,13.77-20.74,4.28-1.44-6.97c-1.87-9.06-17.55-10.19-28.35-7.96-22.13,4.57-36.29,24.03-30.96,49.82,5,24.23,26.81,40.08,49.29,35.43,23.36-4.82,34.09-24.12,34.09-24.12l15.41,13.9s-13.56,24.97-45.46,31.55c-37.82,7.81-69.48-15.27-77.04-51.87-7.38-35.73,13.85-68.46,49.75-75.87ZM597.92,177.69l71.65,45.26c7.46,4.73,16.69,12.18,16.69,12.18l.33-.14s-5.3-9.15-8.19-15.85l-22.9-53.11c-3.31-7.68-1.53-12.52,6.32-15.9l20.92-9.02,7.82,18.14-7.03,3.03c-2.29.99-3.03,2.86-2.04,5.15l40.67,94.29-19.12,8.25-71.75-45.03c-7.39-4.56-16.69-12.18-16.69-12.18l-.33.14s5.3,9.15,8.19,15.85l22.84,52.95c3.38,7.84,1.52,12.52-6.32,15.9l-20.92,9.02-7.82-18.14,7.03-3.03c2.29-.99,3.03-2.86,2.04-5.15l-40.66-94.29,19.28-8.32ZM545.04,205.91l10.47,16.75-10.72,6.7,46.02,73.65,10.71-6.69,10.47,16.75-40.15,25.08-10.46-16.75,10.71-6.7-46.02-73.65-10.72,6.7-10.47-16.75,40.15-25.08ZM450.68,268.74c11.47-9.3,33.54-18.26,44.86-4.3l7.4,9.12-16.31,13.23-3.59-4.42c-3.7-4.56-12.66-2.33-19.16,2.93-8.29,6.73-10.9,15.94-5.86,22.16,13.56,16.73,57.04-24.03,83.16,8.17,12.67,15.62,11.4,38.64-9.19,55.34-21.7,17.6-46.06,12.15-46.06,12.15l-.09-21.01s19.51,3.43,33.19-7.67c7.46-6.05,10.85-15.44,4.68-23.04-13.56-16.72-58.61,22.1-83.38-8.45-12.89-15.89-8.6-38.85,10.34-54.21ZM1014.55,1602.69c-13.72,16.47-41.86,5.47-59.16,10.51-5.93,1.72-7.82,2.4-20.06,3.81-9.45,1.09-24.56-.58-29.95-1.73-16.96-4.02-27.45-10.54-26.96-18.71.28-4.7,2.2-9.52,6.18-13.86,1.89-2.05,5.82-7.14,17.29-10.81,12.9-4.14,20.55-3.94,47.97-.7,15.65,2.32,70.74,10.5,64.69,31.48ZM1431.91,1152.47c-50.87,14.83-112.42,15.79-164.11,27.36-16.92,3.77-51.77,9.68-44.88,33.23,2.48,8.47,23.46,15.32,31.61,16.96,21.68,4.39,91.64-2.91,85.39,34.52-3.73,10.15-16.04,18.11-26.79,19.32-56.43,6.36-125.28-12.82-181.56-20.22-39.16-5.15-119.39-14.99-153.95,1.25-34.75,16.35-28.51,54.58,3.49,70.06,24.2,11.69,60.24,11.53,86.88,10.09,29.95-1.62,95.07-22.52,100.46,21.11-3.32,9.97-12.29,16.06-22.03,19.03-35.75,10.91-79.68,3.28-116.71,5.85-10.28.7-49.21,5.95-52.08,17.02-.24.59-.58,1.7-.42,3.06.3,2.54,2.16,3.96,2.53,4.32,2.46,2.38,41.46,13.75,43.98,25.47.62,2.88-.13,6.25-2.8,10.28-6.22,7.12-11.36,10.44-19.2,11.4-45.06,5.64-97.49-2.13-143.08-5.21-23.87-1.6-68.59,2.85-88.01-11.55-13.95-10.34-8.37-28.06,7.1-33.64,9.44-3.4,34.15-5.23,45.21-5.87,24.43-1.39,51.05,2.99,74.82-4.31,29.6-9.11,14.44-28-7.65-34.79-44.16-13.58-110.72-7.9-155.86,1.48-47.01,9.78-111.39,37-158.65,32.2-46.95-4.8-62.17-42.17-9.78-57.68,16.65-4.94,81.37-4.9,81.37-24.98-16.31-32.43-73.84,4.74-91.13-30.64,6.56-17.33,28.76-17.86,44.82-18.56,29.08-1.25,72.79,8.88,98.86,1.33,21.04-6.11,23.94-23.59,5.13-34.44-13.76-7.92-53.82-12.53-70.74-13.52-33.39-1.95-112.11,6.89-137.63-12.98-15.75-12.29-6.62-27.4,9.11-33.64,15.36-6.07,33.56-3.61,49.02-9.68,8.53-6.01,6.87-13.95-.41-20.1-33.95-9.91-67.75.68-101.73,4.74-27.01,3.24-66.11,10.97-91.68,8.02-11.16-1.27-29.54-8.35-29.54-21.76-.02-31.03,75.73-9.82,90.72-21.86,25.76-20.7-13.8-35.93-20.14-45.88-19.73-31.01,29.04-19.22,35.63-33.06,6.28-13.25-12.45-63.46-15.92-81.1-38.15-194.26,39.61-396.04,200.19-510.66,360.58-257.35,824.33,33.64,794.71,462.83-1.89,27.53-11.53,80.22-22.46,105.16-14.15,32.3-29.74,21.84-45.57,37.39-18.91,18.58,5.39,30.66,23.4,32.28,28.14,2.52,88.4-4.68,97.61,32.63,5.37,21.74-20.57,32.78-37.51,37.72Z"/>
      <path class="cls-1" d="M876.67,1748.92c-31.73-9.54-114.77-8.24-150.09-5.86-12.05.81-48.58,4.98-53.12,16.13l1.66,11.33c3.99,2.27,7.74,5.33,12.03,7.1,30.09,12.46,153.94,12.36,190.29,9.06,11.66-1.06,19.12-5.24,23.23-16.7-2.55-11.76-13.12-17.8-23.99-21.07Z"/>
      <path class="cls-1" d="M1479.4,1621.04c-16.26-9.87-76.01-12.14-95.92-9.9-11.64,1.31-40.59,6.05-40.23,21.06.16,6.69,13.56,14.34,19.71,15.93,28.63,7.37,89.9,9.53,117.01-1.77,9.25-3.86,11.78-10.57,6.35-19.49-2.07-2.21-4.32-4.24-6.92-5.82Z"/>
      <path class="cls-1" d="M268.12,1479.94c5.93-19.92-24.99-21.05-38.94-19.79-8.79.79-54.25,8.51-34.58,21.22,18.27,11.8,54.32,7.29,73.52-1.43Z"/>
      <path class="cls-1" d="M1058.6,1002.95c-8.61,20.57-2.83,50.27-26.95,59.91-2.22.88-4.25,1.13-6.15.86-14.73-2.11-20.16-30.73-27.3-48.92-4.39-11.2-8.82-16.68-89.02-83.89-51.48-43.13-57.35-47.34-69.8-49.55-33.17-5.95-64.01,9.17-86.68,25.02-24.37,17.02-55.81,47.07-80.05,60.36-18.6,10.17-42.21,10.58-60.2,23.36-4.9,7.16-35.98,34.54-29.84,43.3,6.99,2.71,16.16,1.27,23.44-.53,10.99-2.73,52.67-25.97,57.76-7.71l-4.78,22.42c9.25,4.98,17.97-12.08,21.43-19.4,4.1-8.64,5.97-22.09,10.69-30.17,13.23-22.75,91.91-41.7,115.89-57.72,2.95-.43,5.93-.84,8.88-1.27,5.85,11.65,14.97,26.85,29.02,42.27,15.79,17.37,32.02,28.65,44.02,35.69-14.81,7.4-31.81,17.27-49.57,30.42-14.79,10.93-27.18,21.99-37.35,32.14-.88,4.25,1.09,5.23,4.14,7.28,14.05,9.39,67.07,26.42,84.18,28.16,76.1,7.71,127.69-31.5,208.38-18.06,13.95,2.32,55.47,3.91,65.73-.83,6.18-2.84,12.96-15.1,17.96-27.99,4.6-11.84,7.7-24.23,7.45-30.35-3.04-74.58-104.22-99.44-131.27-34.81Z"/>
      <path class="cls-1" d="M1684.77,1375.66c-12.48-8.18-43.51-13.07-68.82-13.43l-1.24-.02c-35.31-1.04-68.63,9.37-39.87,21.85,24.19,9.76,69.7,13.53,99.73,6.86,14.45-3.47,19.03-9.49,10.19-15.25Z"/>
    </g>
  </g>
</svg>