<?xml version="1.0" encoding="UTF-8"?>
<svg xmlns="http://www.w3.org/2000/svg" viewBox="0 0 7544.18 939.49">
  <defs>
    <style>
      .cls-1 {
        font-size: 400px;
        letter-spacing: .04em;
      }

      .cls-2 {
        letter-spacing: 0em;
      }

      .cls-2, .cls-3, .cls-4 {
        font-size: 756.55px;
      }

      .cls-5, .cls-6 {
        fill: #fff;
      }

      .cls-7 {
        font-size: 500px;
        letter-spacing: .04em;
      }

      .cls-3 {
        letter-spacing: .04em;
      }

      .cls-4 {
        letter-spacing: .04em;
      }

      .cls-6 {
        font-family: DERENISDEMORegular, 'DERENIS DEMO';
      }
    </style>
  </defs>
  <g id="Layer_1" data-name="Layer 1">
    <text class="cls-6" transform="translate(1189.83 732.48)"><tspan class="cls-3" x="0" y="0">LEIN</tspan><tspan class="cls-2" x="1344.38" y="0">S</tspan><tspan class="cls-4" x="1771.83" y="0">TER</tspan><tspan class="cls-1" x="3047.37" y="0"> </tspan><tspan class="cls-4" x="3186.97" y="0">OPEN</tspan><tspan class="cls-7" x="4880.11" y="0"> </tspan><tspan class="cls-4" x="5054.61" y="0">SEA</tspan></text>
  </g>
  <g id="Layer_2" data-name="Layer 2">
    <g>
      <path class="cls-5" d="M617.62,107.14c2.85-7.82-.21-17.19-6.71-19.55-5.89-2.14-11.06,1.15-13.2,7.03-2.27,6.24-.2,12.86,7.35,15.61,5.45,1.98,11.16.78,12.56-3.09Z"/>
      <path class="cls-5" d="M689.83,183.78c7.11,5.62,15.54-.82,23.66-11.08,8-10.12,12.27-19.73,5.16-25.36-7.11-5.62-15.49.74-23.49,10.86-8.12,10.26-12.44,19.95-5.33,25.58Z"/>
      <path class="cls-5" d="M930.61,540.77c-.88-7.51,2.19-9.46,2.48-10.81,3.35-15.28,4.89-41.4,5.45-57.34,4.64-132.35-49.11-262.86-146.77-351.48C575.36-75.2,232.55-27.64,85.61,225.82c-50.71,87.48-65.14,181.03-59.04,281.65.79,13.05,8.12,44.78,3.31,55.5-3.31,7.36-13.47,8.83-9.35,21.62,5.84,18.16,44.64,12.34,59.06,13.34,10.48.72,23.84,2.53,28.59,13.08l-.31,4.4c-6.58,12.15-20.02,8.34-30.95,9.34-19.41,1.78-54.52,5.28-70.31,16.84-12.83,9.38-5.43,23.5,8.94,25.74,18.32,2.86,40.07-3.94,59.86-2.2,33.44,2.95,55.74,26.75,92.07,17.99,13.96-3.37,26.95-16.21,42.04-9.97,16.8,18.46-15.29,28.35-29.51,30.53-39.74,6.11-109.16-9.83-142.25,10.63-12.64,7.81-12.33,23.44.94,30.41,23.47,12.33,77.74,3.78,105.33,4.64,7.47-.29,23.46,3.77,25.99,3.84,9.66.26,35.44-5.66,28.89,14.98-2.41,7.6-27.85,8.59-35.95,13.65-6.99,4.36-5.35,8.23-8.66,14.12-6.48,11.53-23.67,5.65-33.44,12.83-8.65,12.45,6.25,19.48,16.75,22.08,37.37,9.27,91.36,1.91,129.72-2.34,27.52-3.04,93.32-16.51,114.71,3.31,9.34,8.66,11.52,24.54-1.03,31.25-17.95,9.6-59.97-6.66-81.55-5.11-11.38.83-17.77,9.62-8.73,18.22,15.61,14.82,62.96,15.6,83.94,16.64,45,2.23,90.44,1.35,135.37,4.09,46.75,2.84,108.4,14.26,153.59-.62,2.61-.86,5.6-3.86,8.08-5.32,3.79-6.66-.5-13.23-6.93-16.05-16.71-7.34-49.19-1.42-60.74-14.35-12.25-13.72,9.9-23.98,20.43-27.57,91.48-31.18,153.97-5.71,153.97-5.71,12.6,5.5,25.46,6.4,31.69.66,6.41-5.91,5.56-12.66-5.6-20.17-6.92-4.65-15.77-3.57-18.5-3.27-39.99,4.42-90.35-11.82-94.12-35.22-3.74-23.2,27.58-13.01,43.83-2.52,15.95,11.46,122.54,21.8,111.58-7.59-4.54-12.18-16.88-.83-36.8-5.19-19.28-4.22,4.56-19.28-28.31-18.87-16.83.21-7.69-19.98,1.45-29.88,12.7-13.75,47.86-17.9,76.68-10.16,16.19,4.35,55.57,3.83,65.79-15.82,7.63-14.66,1.16-35.46-10.05-46.55-15.83-15.64-72.08-11.93-44.19-39.71,18.47-18.39,57.88-11.24,75.7-30.9,4.47-15.12-15.74-10.76-16.98-21.36ZM725.54,138.61c14.22,11.25,9.45,26.78-2.38,41.74-11.83,14.96-25.96,23.33-40.18,12.08-14.22-11.25-9.34-26.92,2.49-41.88,11.83-14.96,25.84-23.18,40.06-11.94ZM648.02,104.37c4.26-7.68,16.35-5.58,23.87-1.41,10.14,5.62,15.27,16.8,9.29,27.59-10.87,19.62-39.55,5.22-45.4,15.77-.59,1.06-.16,1.83,1.39,2.7l17.01,9.43c1.14.63,2.16.34,2.8-.8l1.95-3.52,9.65,5.35-4.89,8.83c-2.17,3.92-4.72,4.65-8.64,2.48l-30.25-16.77c-5.07-2.81-4.74-5.52-1.71-10.99,11.65-21.01,39.38-4.14,47.22-18.29,2.54-4.58.73-9.42-4.25-12.19-4.58-2.54-8.92-1.84-10.14.36l-1.4,2.53-9.65-5.35,3.17-5.72ZM581.61,124.08s3.31,3.49,8.05,5.22c9.75,3.55,18.03-2.79,22.72-11.03l-.18-.06c-3.01,1.99-8.78,1.98-13.26.35-12.3-4.48-16.45-16.83-12.39-27.99,4.19-11.51,15.78-17.93,28.16-13.42,12.91,4.7,20.23,19.3,13.52,37.75-6.04,16.6-22.32,32.07-41.64,25.03-7.9-2.88-11.86-7.3-11.86-7.3l6.89-8.54ZM530.59,114.19l14.01,2.85,7.35-36.09c.45-2.2.99-4.38.99-4.38l-.18-.04s-1.05,1.41-3.59,3.09l-6.23,3.88-5.47-8.75,19.49-12.34,10.81,2.2-11.17,54.87,14.01,2.85-2.07,10.17-40.03-8.15,2.07-10.17ZM488.98,54.96c4.39-.11,6.4,1.8,6.51,6.19l.25,10.09-11.12.28-.1-4.02c-.03-1.31-.8-2.04-2.11-2l-14.95.38.44,17.38,21.49-.54.26,10.37-21.49.54.4,15.79c.03,1.31.8,2.04,2.11,2l15.33-.39c1.31-.03,2.04-.8,2-2.11l-.1-4.02,11.12-.28.25,10.09c.11,4.49-1.8,6.4-6.19,6.51l-30.09.76c-4.49.11-6.4-1.71-6.52-6.19l-1.25-49.62-6.07.15-.26-10.37,40.09-1.01ZM407.13,61.49c8.33-1.72,25.34-1.61,27.63,9.47l1.49,7.23-10.89,2.25-.76-3.66c-.98-4.76-9.22-5.35-14.89-4.18-11.63,2.4-19.06,12.62-16.26,26.17,2.63,12.73,14.08,21.05,25.89,18.61,12.27-2.53,17.91-12.67,17.91-12.67l8.09,7.3s-7.12,13.12-23.88,16.57c-19.87,4.1-36.5-8.02-40.47-27.25-3.87-18.77,7.27-35.96,26.13-39.85ZM314.07,93.34l37.64,23.77c3.92,2.48,8.77,6.4,8.77,6.4l.17-.07s-2.79-4.8-4.3-8.32l-12.03-27.9c-1.74-4.03-.8-6.58,3.32-8.35l10.99-4.74,4.11,9.53-3.69,1.59c-1.2.52-1.59,1.5-1.07,2.7l21.36,49.53-10.04,4.33-37.69-23.65c-3.88-2.4-8.77-6.4-8.77-6.4l-.17.07s2.78,4.8,4.3,8.32l12,27.81c1.78,4.12.8,6.58-3.32,8.35l-10.99,4.74-4.11-9.53,3.69-1.59c1.2-.52,1.59-1.5,1.07-2.7l-21.36-49.53,10.13-4.37ZM286.29,108.16l5.5,8.8-5.63,3.52,24.17,38.69,5.63-3.52,5.5,8.8-21.09,13.18-5.5-8.8,5.63-3.52-24.17-38.69-5.63,3.52-5.5-8.8,21.09-13.17ZM236.73,141.16c6.03-4.89,17.62-9.59,23.56-2.26l3.89,4.79-8.57,6.95-1.88-2.32c-1.94-2.4-6.65-1.23-10.06,1.54-4.36,3.53-5.72,8.37-3.08,11.64,7.13,8.79,29.96-12.62,43.68,4.29,6.65,8.2,5.99,20.3-4.83,29.07-11.4,9.24-24.19,6.38-24.19,6.38l-.05-11.04s10.25,1.8,17.43-4.03c3.92-3.18,5.7-8.11,2.46-12.1-7.13-8.78-30.79,11.61-43.8-4.44-6.77-8.35-4.52-20.41,5.43-28.48ZM532.92,841.86c-7.21,8.65-21.99,2.88-31.08,5.52-3.11.91-4.11,1.26-10.54,2-4.96.57-12.9-.3-15.73-.91-8.91-2.11-14.42-5.53-14.16-9.83.15-2.47,1.16-5,3.25-7.28.99-1.08,3.06-3.75,9.08-5.68,6.78-2.18,10.8-2.07,25.2-.37,8.22,1.22,37.16,5.52,33.98,16.54ZM752.15,605.37c-26.72,7.79-59.05,8.3-86.2,14.37-8.89,1.98-27.19,5.09-23.57,17.45,1.3,4.45,12.33,8.05,16.6,8.91,11.39,2.31,48.14-1.53,44.85,18.13-1.96,5.33-8.43,9.51-14.07,10.15-29.64,3.34-65.81-6.73-95.37-10.62-20.57-2.7-62.71-7.88-80.87.66-18.25,8.59-14.98,28.67,1.83,36.8,12.71,6.14,31.64,6.06,45.64,5.3,15.73-.85,49.94-11.83,52.77,11.09-1.75,5.24-6.45,8.44-11.57,10-18.78,5.73-41.86,1.72-61.3,3.07-5.4.37-25.85,3.12-27.35,8.94-.12.31-.31.89-.22,1.61.16,1.33,1.13,2.08,1.33,2.27,1.29,1.25,21.78,7.22,23.1,13.38.33,1.51-.07,3.28-1.47,5.4-3.27,3.74-5.97,5.48-10.08,5.99-23.67,2.96-51.21-1.12-75.16-2.74-12.54-.84-36.03,1.5-46.23-6.07-7.33-5.43-4.4-14.74,3.73-17.67,4.96-1.79,17.94-2.75,23.75-3.08,12.83-.73,26.82,1.57,39.3-2.26,15.55-4.78,7.58-14.71-4.02-18.27-23.2-7.13-58.16-4.15-81.87.78-24.69,5.14-58.51,19.44-83.34,16.91-24.66-2.52-32.66-22.15-5.14-30.3,8.75-2.6,42.74-2.58,42.74-13.12-8.57-17.03-38.79,2.49-47.87-16.1,3.45-9.1,15.1-9.38,23.54-9.75,15.28-.66,38.24,4.67,51.93.7,11.05-3.21,12.57-12.39,2.69-18.09-7.23-4.16-28.27-6.58-37.16-7.1-17.54-1.02-58.89,3.62-72.29-6.82-8.27-6.45-3.48-14.39,4.78-17.67,8.07-3.19,17.63-1.9,25.75-5.09,4.48-3.16,3.61-7.33-.22-10.56-17.83-5.2-35.59.36-53.44,2.49-14.19,1.7-34.72,5.76-48.16,4.21-5.86-.67-15.51-4.38-15.51-11.43-.01-16.3,39.78-5.16,47.65-11.48,13.53-10.87-7.25-18.88-10.58-24.1-10.36-16.29,15.26-10.1,18.71-17.37,3.3-6.96-6.54-33.33-8.36-42.6-20.04-102.04,20.8-208.03,105.15-268.24,189.4-135.18,433,17.67,417.44,243.11-.99,14.46-6.05,42.14-11.8,55.24-7.43,16.97-15.62,11.47-23.94,19.64-9.93,9.76,2.83,16.11,12.29,16.96,14.78,1.33,46.44-2.46,51.27,17.14,2.82,11.42-10.81,17.22-19.71,19.81Z"/>
      <path class="cls-5" d="M460.49,918.67c-16.66-5.01-60.29-4.33-78.84-3.08-6.33.43-25.52,2.62-27.9,8.47l.87,5.95c2.09,1.19,4.07,2.8,6.32,3.73,15.81,6.54,80.86,6.49,99.95,4.76,6.13-.55,10.04-2.75,12.2-8.77-1.34-6.18-6.89-9.35-12.6-11.07Z"/>
      <path class="cls-5" d="M777.09,851.49c-8.54-5.19-39.93-6.38-50.38-5.2-6.12.69-21.32,3.18-21.13,11.06.08,3.52,7.12,7.53,10.35,8.37,15.04,3.87,47.22,5.01,61.46-.93,4.86-2.03,6.19-5.55,3.34-10.24-1.09-1.16-2.27-2.23-3.64-3.06Z"/>
      <path class="cls-5" d="M140.84,777.38c3.12-10.47-13.13-11.06-20.45-10.4-4.62.41-28.5,4.47-18.16,11.15,9.59,6.2,28.53,3.83,38.62-.75Z"/>
      <path class="cls-5" d="M556.05,526.82c-4.52,10.81-1.49,26.41-14.16,31.47-1.16.46-2.23.59-3.23.45-7.74-1.11-10.59-16.14-14.34-25.7-2.31-5.88-4.63-8.76-46.76-44.06-27.04-22.66-30.12-24.87-36.66-26.03-17.42-3.12-33.63,4.82-45.53,13.14-12.8,8.94-29.32,24.73-42.05,31.71-9.77,5.34-22.17,5.56-31.62,12.27-2.57,3.76-18.9,18.14-15.68,22.74,3.67,1.42,8.49.67,12.31-.28,5.77-1.43,27.67-13.64,30.34-4.05l-2.51,11.78c4.86,2.62,9.44-6.35,11.26-10.19,2.15-4.54,3.14-11.6,5.61-15.85,6.95-11.95,48.28-21.9,60.87-30.32,1.55-.23,3.11-.44,4.67-.67,3.07,6.12,7.86,14.1,15.24,22.2,8.3,9.13,16.82,15.05,23.12,18.75-7.78,3.89-16.71,9.07-26.04,15.98-7.77,5.74-14.28,11.55-19.62,16.88-.46,2.23.57,2.75,2.18,3.82,7.38,4.93,35.23,13.88,44.22,14.79,39.97,4.05,67.07-16.55,109.46-9.49,7.33,1.22,29.14,2.05,34.52-.43,3.25-1.49,6.81-7.93,9.44-14.7,2.42-6.22,4.04-12.73,3.91-15.94-1.59-39.17-54.74-52.23-68.95-18.28Z"/>
      <path class="cls-5" d="M884.97,722.6c-6.56-4.3-22.86-6.87-36.15-7.06h-.65c-18.54-.56-36.05,4.92-20.94,11.47,12.71,5.13,36.61,7.1,52.39,3.6,7.59-1.82,10-4.99,5.35-8.01Z"/>
    </g>
  </g>
</svg>